  0
SECTION
  2
HEADER
  9
$ACADVER
  1
AC1012
  9
$DWGCODEPAGE
  3
undefined
  9
$INSBASE
 10
0.0
 20
0.0
 30
0.0
  9
$EXTMIN
 10
1.000000000000000E+20
 20
1.000000000000000E+20
 30
1.000000000000000E+20
  9
$EXTMAX
 10
-1.000000000000000E+20
 20
-1.000000000000000E+20
 30
-1.000000000000000E+20
  9
$LIMMIN
 10
0.0
 20
0.0
  9
$LIMMAX
 10
12.0
 20
9.0
  9
$ORTHOMODE
 70
     0
  9
$REGENMODE
 70
     1
  9
$FILLMODE
 70
     1
  9
$QTEXTMODE
 70
     0
  9
$MIRRTEXT
 70
     1
  9
$DRAGMODE
 70
     2
  9
$LTSCALE
 40
1.0
  9
$OSMODE
 70
    37
  9
$ATTMODE
 70
     1
  9
$TEXTSIZE
 40
0.2
  9
$TRACEWID
 40
0.05
  9
$TEXTSTYLE
  7
STANDARD
  9
$CLAYER
  8
0
  9
$CELTYPE
  6
BYLAYER
  9
$CECOLOR
 62
   256
  9
$CELTSCALE
 40
1.0
  9
$DELOBJ
 70
     1
  9
$DISPSILH
 70
     0
  9
$DIMSCALE
 40
1.0
  9
$DIMASZ
 40
0.18
  9
$DIMEXO
 40
0.0625
  9
$DIMDLI
 40
0.38
  9
$DIMRND
 40
0.0
  9
$DIMDLE
 40
0.0
  9
$DIMEXE
 40
0.18
  9
$DIMTP
 40
0.0
  9
$DIMTM
 40
0.0
  9
$DIMTXT
 40
0.18
  9
$DIMCEN
 40
0.09
  9
$DIMTSZ
 40
0.0
  9
$DIMTOL
 70
     0
  9
$DIMLIM
 70
     0
  9
$DIMTIH
 70
     1
  9
$DIMTOH
 70
     1
  9
$DIMSE1
 70
     0
  9
$DIMSE2
 70
     0
  9
$DIMTAD
 70
     0
  9
$DIMZIN
 70
     0
  9
$DIMBLK
  1

  9
$DIMASO
 70
     1
  9
$DIMSHO
 70
     1
  9
$DIMPOST
  1

  9
$DIMAPOST
  1

  9
$DIMALT
 70
     0
  9
$DIMALTD
 70
     2
  9
$DIMALTF
 40
25.4
  9
$DIMLFAC
 40
1.0
  9
$DIMTOFL
 70
     0
  9
$DIMTVP
 40
0.0
  9
$DIMTIX
 70
     0
  9
$DIMSOXD
 70
     0
  9
$DIMSAH
 70
     0
  9
$DIMBLK1
  1

  9
$DIMBLK2
  1

  9
$DIMSTYLE
  2
STANDARD
  9
$DIMCLRD
 70
     0
  9
$DIMCLRE
 70
     0
  9
$DIMCLRT
 70
     0
  9
$DIMTFAC
 40
1.0
  9
$DIMGAP
 40
0.09
  9
$DIMJUST
 70
     0
  9
$DIMSD1
 70
     0
  9
$DIMSD2
 70
     0
  9
$DIMTOLJ
 70
     1
  9
$DIMTZIN
 70
     0
  9
$DIMALTZ
 70
     0
  9
$DIMALTTZ
 70
     0
  9
$DIMFIT
 70
     3
  9
$DIMUPT
 70
     0
  9
$DIMUNIT
 70
     2
  9
$DIMDEC
 70
     4
  9
$DIMTDEC
 70
     4
  9
$DIMALTU
 70
     2
  9
$DIMALTTD
 70
     2
  9
$DIMTXSTY
  7
STANDARD
  9
$DIMAUNIT
 70
     0
  9
$LUNITS
 70
     2
  9
$LUPREC
 70
     4
  9
$SKETCHINC
 40
0.1
  9
$FILLETRAD
 40
0.5
  9
$AUNITS
 70
     0
  9
$AUPREC
 70
     0
  9
$MENU
  1
.
  9
$ELEVATION
 40
0.0
  9
$PELEVATION
 40
0.0
  9
$THICKNESS
 40
0.0
  9
$LIMCHECK
 70
     0
  9
$CHAMFERA
 40
0.5
  9
$CHAMFERB
 40
0.5
  9
$CHAMFERC
 40
1.0
  9
$CHAMFERD
 40
0.0
  9
$SKPOLY
 70
     0
  9
$TDCREATE
 40
2457721.50403934
  9
$TDUPDATE
 40
2457721.50403934
  9
$TDINDWG
 40
0.0000000116
  9
$TDUSRTIMER
 40
0.0000000116
  9
$USRTIMER
 70
     1
  9
$ANGBASE
 50
0.0
  9
$ANGDIR
 70
     0
  9
$PDMODE
 70
     0
  9
$PDSIZE
 40
0.0
  9
$PLINEWID
 40
0.0
  9
$COORDS
 70
     1
  9
$SPLFRAME
 70
     0
  9
$SPLINETYPE
 70
     6
  9
$SPLINESEGS
 70
     8
  9
$ATTDIA
 70
     0
  9
$ATTREQ
 70
     1
  9
$HANDLING
 70
     1
  9
$HANDSEED
  5
4D
  9
$SURFTAB1
 70
     6
  9
$SURFTAB2
 70
     6
  9
$SURFTYPE
 70
     6
  9
$SURFU
 70
     6
  9
$SURFV
 70
     6
  9
$UCSNAME
  2

  9
$UCSORG
 10
0.0
 20
0.0
 30
0.0
  9
$UCSXDIR
 10
1.0
 20
0.0
 30
0.0
  9
$UCSYDIR
 10
0.0
 20
1.0
 30
0.0
  9
$PUCSNAME
  2

  9
$PUCSORG
 10
0.0
 20
0.0
 30
0.0
  9
$PUCSXDIR
 10
1.0
 20
0.0
 30
0.0
  9
$PUCSYDIR
 10
0.0
 20
1.0
 30
0.0
  9
$USERI1
 70
     0
  9
$USERI2
 70
     0
  9
$USERI3
 70
     0
  9
$USERI4
 70
     0
  9
$USERI5
 70
     0
  9
$USERR1
 40
0.0
  9
$USERR2
 40
0.0
  9
$USERR3
 40
0.0
  9
$USERR4
 40
0.0
  9
$USERR5
 40
0.0
  9
$WORLDVIEW
 70
     1
  9
$SHADEDGE
 70
     3
  9
$SHADEDIF
 70
    70
  9
$TILEMODE
 70
     1
  9
$MAXACTVP
 70
    64
  9
$PINSBASE
 10
0.0
 20
0.0
 30
0.0
  9
$PLIMCHECK
 70
     0
  9
$PEXTMIN
 10
1.000000000000000E+20
 20
1.000000000000000E+20
 30
1.000000000000000E+20
  9
$PEXTMAX
 10
-1.000000000000000E+20
 20
-1.000000000000000E+20
 30
-1.000000000000000E+20
  9
$PLIMMIN
 10
0.0
 20
0.0
  9
$PLIMMAX
 10
12.0
 20
9.0
  9
$UNITMODE
 70
     0
  9
$VISRETAIN
 70
     1
  9
$PLINEGEN
 70
     0
  9
$PSLTSCALE
 70
     1
  9
$TREEDEPTH
 70
  3020
  9
$PICKSTYLE
 70
     1
  9
$CMLSTYLE
  2
STANDARD
  9
$CMLJUST
 70
     0
  9
$CMLSCALE
 40
1.0
  9
$SAVEIMAGES
 70
     1
  0
ENDSEC
  0
SECTION
  2
CLASSES
  0
CLASS
  1
ACDBDICTIONARYWDFLT
  2
AcDbDictionaryWithDefault
  3
ObjectDBX Classes
 90
    32768
280
     0
281
     0
  0
CLASS
  1
VISUALSTYLE
  2
AcDbVisualStyle
  3
ObjectDBX Classes
 90
     4095
280
     0
281
     0
  0
CLASS
  1
MATERIAL
  2
AcDbMaterial
  3
ObjectDBX Classes
 90
     1153
280
     0
281
     0
  0
CLASS
  1
SUN
  2
AcDbSun
  3
SCENEOE
 90
     1024
280
     0
281
     0
  0
CLASS
  1
DICTIONARYVAR
  2
AcDbDictionaryVar
  3
ObjectDBX Classes
 90
        0
280
     0
281
     0
  0
CLASS
  1
XRECORD
  2
AcDbXrecord
  3
AutoCAD 2000
 90
    32768
280
     0
281
     0
  0
CLASS
  1
LWPOLYLINE
  2
AcDbPolyline
  3
AutoCAD 2000
 90
    32768
280
     0
281
     1
  0
CLASS
  1
HATCH
  2
AcDbHatch
  3
AutoCAD 2000
 90
    32768
280
     0
281
     1
  0
CLASS
  1
ACDBPLACEHOLDER
  2
AcDbPlaceHolder
  3
ObjectDBX Classes
 90
        0
280
     0
281
     0
  0
CLASS
  1
LAYOUT
  2
AcDbLayout
  3
ObjectDBX Classes
 90
        0
280
     0
281
     0
  0
ENDSEC
  0
SECTION
  2
TABLES
  0
TABLE
  2
VPORT
  5
8
330
0
100
AcDbSymbolTable
 70
     1
  0
VPORT
  5
29
330
8
100
AcDbSymbolTableRecord
100
AcDbViewportTableRecord
  2
*ACTIVE
 70
     0
 10
0.0
 20
0.0
 11
1.0
 21
1.0
 12
0.0
 22
0.0
 13
0.0
 23
0.0
 14
0.5
 24
0.5
 15
0.5
 25
0.5
 16
0.0
 26
0.0
 36
1.0
 17
107.9499999730125
 27
-139.699999965075
 37
0.0
 40
279.39999993015
 41
0.7727272727272728
 42
50.0
 43
0.0
 44
0.0
 50
0.0
 51
0.0
 71
     0
 72
   100
 73
     1
 74
     3
 75
     0
 76
     0
 77
     0
 78
     0
  0
ENDTAB
  0
TABLE
  2
LTYPE
  5
5
330
0
100
AcDbSymbolTable
 70
     1
  0
LTYPE
  5
14
330
5
100
AcDbSymbolTableRecord
100
AcDbLinetypeTableRecord
  2
BYBLOCK
 70
     0
  3

 72
    65
 73
     0
 40
0.0
  0
LTYPE
  5
15
330
5
100
AcDbSymbolTableRecord
100
AcDbLinetypeTableRecord
  2
BYLAYER
 70
     0
  3

 72
    65
 73
     0
 40
0.0
  0
LTYPE
  5
16
330
5
100
AcDbSymbolTableRecord
100
AcDbLinetypeTableRecord
  2
CONTINUOUS
 70
     0
  3
Solid line
 72
    65
 73
     0
 40
0.0
  0
ENDTAB
  0
TABLE
  2
LAYER
  5
2
330
0
100
AcDbSymbolTable
 70
     2
  0
LAYER
  5
10
330
2
100
AcDbSymbolTableRecord
100
AcDbLayerTableRecord
  2
0
 70
     0
 62
     7
  6
CONTINUOUS
  0
LAYER
  5
40
330
2
100
AcDbSymbolTableRecord
100
AcDbLayerTableRecord
  2
LAYER_1
 70
     0
 62
     7
  6
CONTINUOUS
  0
ENDTAB
  0
TABLE
  2
STYLE
  5
3
330
0
100
AcDbSymbolTable
 70
     1
  0
STYLE
  5
11
330
3
100
AcDbSymbolTableRecord
100
AcDbTextStyleTableRecord
  2
STANDARD
 70
     0
 40
0.0
 41
1.0
 50
0.0
 71
     0
 42
0.2
  3
txt
  4

  0
ENDTAB
  0
TABLE
  2
VIEW
  5
6
330
0
100
AcDbSymbolTable
 70
     0
  0
ENDTAB
  0
TABLE
  2
UCS
  5
7
330
0
100
AcDbSymbolTable
 70
     0
  0
ENDTAB
  0
TABLE
  2
APPID
  5
9
330
0
100
AcDbSymbolTable
 70
     1
  0
APPID
  5
12
330
9
100
AcDbSymbolTableRecord
100
AcDbRegAppTableRecord
  2
ACAD
 70
     0
  0
ENDTAB
  0
TABLE
  2
DIMSTYLE
  5
A
330
0
100
AcDbSymbolTable
 70
     1
  0
DIMSTYLE
105
27
330
A
100
AcDbSymbolTableRecord
100
AcDbDimStyleTableRecord
  2
STANDARD
 70
     0
  3

  4

  5

  6

  7

 40
1.0
 41
0.18
 42
0.0625
 43
0.38
 44
0.18
 45
0.0
 46
0.0
 47
0.0
 48
0.0
140
0.18
141
0.09
142
0.0
143
25.4
144
1.0
145
0.0
146
1.0
147
0.09
 71
     0
 72
     0
 73
     1
 74
     1
 75
     0
 76
     0
 77
     0
 78
     0
170
     0
171
     2
172
     0
173
     0
174
     0
175
     0
176
     0
177
     0
178
     0
270
     2
271
     4
272
     4
273
     2
274
     2
340
11
275
     0
280
     0
281
     0
282
     0
283
     1
284
     0
285
     0
286
     0
287
     3
288
     0
  0
ENDTAB
  0
TABLE
  2
BLOCK_RECORD
  5
1
330
0
100
AcDbSymbolTable
 70
     1
  0
BLOCK_RECORD
  5
1F
330
1
100
AcDbSymbolTableRecord
100
AcDbBlockTableRecord
  2
*MODEL_SPACE
  0
BLOCK_RECORD
  5
1B
330
1
100
AcDbSymbolTableRecord
100
AcDbBlockTableRecord
  2
*PAPER_SPACE
  0
ENDTAB
  0
ENDSEC
  0
SECTION
  2
BLOCKS
  0
BLOCK
  5
20
330
1F
100
AcDbEntity
  8
0
100
AcDbBlockBegin
  2
*MODEL_SPACE
 70
     0
 10
0.0
 20
0.0
 30
0.0
  3
*MODEL_SPACE
  1

  0
ENDBLK
  5
21
330
1F
100
AcDbEntity
  8
0
100
AcDbBlockEnd
  0
BLOCK
  5
1C
330
1B
100
AcDbEntity
 67
     1
  8
0
100
AcDbBlockBegin
  2
*PAPER_SPACE
 70
     0
 10
0.0
 20
0.0
 30
0.0
  3
*PAPER_SPACE
  1

  0
ENDBLK
  5
1D
330
1B
100
AcDbEntity
 67
     1
  8
0
100
AcDbBlockEnd
  0
ENDSEC
  0
SECTION
  2
ENTITIES
  0
SPLINE
  5
41
330
1F
100
AcDbEntity
  8
LAYER_1
 62
   250
100
AcDbSpline
210
0.0
220
0.0
230
1.0
 70
    11
 71
     3
 72
  1145
 73
  1141
 74
     0
 42
0.0000000001
 43
0.0000000001
 12
1.0
 22
0.0
 32
0.0
 13
1.0
 23
0.0
 33
0.0
 40
0.0
 40
0.0
 40
0.0
 40
0.0
 40
1.0
 40
1.0
 40
1.0
 40
2.0
 40
2.0
 40
2.0
 40
3.0
 40
3.0
 40
3.0
 40
4.0
 40
4.0
 40
4.0
 40
5.0
 40
5.0
 40
5.0
 40
6.0
 40
6.0
 40
6.0
 40
7.0
 40
7.0
 40
7.0
 40
8.0
 40
8.0
 40
8.0
 40
9.0
 40
9.0
 40
9.0
 40
10.0
 40
10.0
 40
10.0
 40
11.0
 40
11.0
 40
11.0
 40
12.0
 40
12.0
 40
12.0
 40
13.0
 40
13.0
 40
13.0
 40
14.0
 40
14.0
 40
14.0
 40
15.0
 40
15.0
 40
15.0
 40
16.0
 40
16.0
 40
16.0
 40
17.0
 40
17.0
 40
17.0
 40
18.0
 40
18.0
 40
18.0
 40
19.0
 40
19.0
 40
19.0
 40
20.0
 40
20.0
 40
20.0
 40
21.0
 40
21.0
 40
21.0
 40
22.0
 40
22.0
 40
22.0
 40
23.0
 40
23.0
 40
23.0
 40
24.0
 40
24.0
 40
24.0
 40
25.0
 40
25.0
 40
25.0
 40
26.0
 40
26.0
 40
26.0
 40
27.0
 40
27.0
 40
27.0
 40
28.0
 40
28.0
 40
28.0
 40
29.0
 40
29.0
 40
29.0
 40
30.0
 40
30.0
 40
30.0
 40
31.0
 40
31.0
 40
31.0
 40
32.0
 40
32.0
 40
32.0
 40
33.0
 40
33.0
 40
33.0
 40
34.0
 40
34.0
 40
34.0
 40
35.0
 40
35.0
 40
35.0
 40
36.0
 40
36.0
 40
36.0
 40
37.0
 40
37.0
 40
37.0
 40
38.0
 40
38.0
 40
38.0
 40
39.0
 40
39.0
 40
39.0
 40
40.0
 40
40.0
 40
40.0
 40
41.0
 40
41.0
 40
41.0
 40
42.0
 40
42.0
 40
42.0
 40
43.0
 40
43.0
 40
43.0
 40
44.0
 40
44.0
 40
44.0
 40
45.0
 40
45.0
 40
45.0
 40
46.0
 40
46.0
 40
46.0
 40
47.0
 40
47.0
 40
47.0
 40
48.0
 40
48.0
 40
48.0
 40
49.0
 40
49.0
 40
49.0
 40
50.0
 40
50.0
 40
50.0
 40
51.0
 40
51.0
 40
51.0
 40
52.0
 40
52.0
 40
52.0
 40
53.0
 40
53.0
 40
53.0
 40
54.0
 40
54.0
 40
54.0
 40
55.0
 40
55.0
 40
55.0
 40
56.0
 40
56.0
 40
56.0
 40
57.0
 40
57.0
 40
57.0
 40
58.0
 40
58.0
 40
58.0
 40
59.0
 40
59.0
 40
59.0
 40
60.0
 40
60.0
 40
60.0
 40
61.0
 40
61.0
 40
61.0
 40
62.0
 40
62.0
 40
62.0
 40
63.0
 40
63.0
 40
63.0
 40
64.0
 40
64.0
 40
64.0
 40
65.0
 40
65.0
 40
65.0
 40
66.0
 40
66.0
 40
66.0
 40
67.0
 40
67.0
 40
67.0
 40
68.0
 40
68.0
 40
68.0
 40
69.0
 40
69.0
 40
69.0
 40
70.0
 40
70.0
 40
70.0
 40
71.0
 40
71.0
 40
71.0
 40
72.0
 40
72.0
 40
72.0
 40
73.0
 40
73.0
 40
73.0
 40
74.0
 40
74.0
 40
74.0
 40
75.0
 40
75.0
 40
75.0
 40
76.0
 40
76.0
 40
76.0
 40
77.0
 40
77.0
 40
77.0
 40
78.0
 40
78.0
 40
78.0
 40
79.0
 40
79.0
 40
79.0
 40
80.0
 40
80.0
 40
80.0
 40
81.0
 40
81.0
 40
81.0
 40
82.0
 40
82.0
 40
82.0
 40
83.0
 40
83.0
 40
83.0
 40
84.0
 40
84.0
 40
84.0
 40
85.0
 40
85.0
 40
85.0
 40
86.0
 40
86.0
 40
86.0
 40
87.0
 40
87.0
 40
87.0
 40
88.0
 40
88.0
 40
88.0
 40
89.0
 40
89.0
 40
89.0
 40
90.0
 40
90.0
 40
90.0
 40
91.0
 40
91.0
 40
91.0
 40
92.0
 40
92.0
 40
92.0
 40
93.0
 40
93.0
 40
93.0
 40
94.0
 40
94.0
 40
94.0
 40
95.0
 40
95.0
 40
95.0
 40
96.0
 40
96.0
 40
96.0
 40
97.0
 40
97.0
 40
97.0
 40
98.0
 40
98.0
 40
98.0
 40
99.0
 40
99.0
 40
99.0
 40
100.0
 40
100.0
 40
100.0
 40
101.0
 40
101.0
 40
101.0
 40
102.0
 40
102.0
 40
102.0
 40
103.0
 40
103.0
 40
103.0
 40
104.0
 40
104.0
 40
104.0
 40
105.0
 40
105.0
 40
105.0
 40
106.0
 40
106.0
 40
106.0
 40
107.0
 40
107.0
 40
107.0
 40
108.0
 40
108.0
 40
108.0
 40
109.0
 40
109.0
 40
109.0
 40
110.0
 40
110.0
 40
110.0
 40
111.0
 40
111.0
 40
111.0
 40
112.0
 40
112.0
 40
112.0
 40
113.0
 40
113.0
 40
113.0
 40
114.0
 40
114.0
 40
114.0
 40
115.0
 40
115.0
 40
115.0
 40
116.0
 40
116.0
 40
116.0
 40
117.0
 40
117.0
 40
117.0
 40
118.0
 40
118.0
 40
118.0
 40
119.0
 40
119.0
 40
119.0
 40
120.0
 40
120.0
 40
120.0
 40
121.0
 40
121.0
 40
121.0
 40
122.0
 40
122.0
 40
122.0
 40
123.0
 40
123.0
 40
123.0
 40
124.0
 40
124.0
 40
124.0
 40
125.0
 40
125.0
 40
125.0
 40
126.0
 40
126.0
 40
126.0
 40
127.0
 40
127.0
 40
127.0
 40
128.0
 40
128.0
 40
128.0
 40
129.0
 40
129.0
 40
129.0
 40
130.0
 40
130.0
 40
130.0
 40
131.0
 40
131.0
 40
131.0
 40
132.0
 40
132.0
 40
132.0
 40
133.0
 40
133.0
 40
133.0
 40
134.0
 40
134.0
 40
134.0
 40
135.0
 40
135.0
 40
135.0
 40
136.0
 40
136.0
 40
136.0
 40
137.0
 40
137.0
 40
137.0
 40
138.0
 40
138.0
 40
138.0
 40
139.0
 40
139.0
 40
139.0
 40
140.0
 40
140.0
 40
140.0
 40
141.0
 40
141.0
 40
141.0
 40
142.0
 40
142.0
 40
142.0
 40
143.0
 40
143.0
 40
143.0
 40
144.0
 40
144.0
 40
144.0
 40
145.0
 40
145.0
 40
145.0
 40
146.0
 40
146.0
 40
146.0
 40
147.0
 40
147.0
 40
147.0
 40
148.0
 40
148.0
 40
148.0
 40
149.0
 40
149.0
 40
149.0
 40
150.0
 40
150.0
 40
150.0
 40
151.0
 40
151.0
 40
151.0
 40
152.0
 40
152.0
 40
152.0
 40
153.0
 40
153.0
 40
153.0
 40
154.0
 40
154.0
 40
154.0
 40
155.0
 40
155.0
 40
155.0
 40
156.0
 40
156.0
 40
156.0
 40
157.0
 40
157.0
 40
157.0
 40
158.0
 40
158.0
 40
158.0
 40
159.0
 40
159.0
 40
159.0
 40
160.0
 40
160.0
 40
160.0
 40
161.0
 40
161.0
 40
161.0
 40
162.0
 40
162.0
 40
162.0
 40
163.0
 40
163.0
 40
163.0
 40
164.0
 40
164.0
 40
164.0
 40
165.0
 40
165.0
 40
165.0
 40
166.0
 40
166.0
 40
166.0
 40
167.0
 40
167.0
 40
167.0
 40
168.0
 40
168.0
 40
168.0
 40
169.0
 40
169.0
 40
169.0
 40
170.0
 40
170.0
 40
170.0
 40
171.0
 40
171.0
 40
171.0
 40
172.0
 40
172.0
 40
172.0
 40
173.0
 40
173.0
 40
173.0
 40
174.0
 40
174.0
 40
174.0
 40
175.0
 40
175.0
 40
175.0
 40
176.0
 40
176.0
 40
176.0
 40
177.0
 40
177.0
 40
177.0
 40
178.0
 40
178.0
 40
178.0
 40
179.0
 40
179.0
 40
179.0
 40
180.0
 40
180.0
 40
180.0
 40
181.0
 40
181.0
 40
181.0
 40
182.0
 40
182.0
 40
182.0
 40
183.0
 40
183.0
 40
183.0
 40
184.0
 40
184.0
 40
184.0
 40
185.0
 40
185.0
 40
185.0
 40
186.0
 40
186.0
 40
186.0
 40
187.0
 40
187.0
 40
187.0
 40
188.0
 40
188.0
 40
188.0
 40
189.0
 40
189.0
 40
189.0
 40
190.0
 40
190.0
 40
190.0
 40
191.0
 40
191.0
 40
191.0
 40
192.0
 40
192.0
 40
192.0
 40
193.0
 40
193.0
 40
193.0
 40
194.0
 40
194.0
 40
194.0
 40
195.0
 40
195.0
 40
195.0
 40
196.0
 40
196.0
 40
196.0
 40
197.0
 40
197.0
 40
197.0
 40
198.0
 40
198.0
 40
198.0
 40
199.0
 40
199.0
 40
199.0
 40
200.0
 40
200.0
 40
200.0
 40
201.0
 40
201.0
 40
201.0
 40
202.0
 40
202.0
 40
202.0
 40
203.0
 40
203.0
 40
203.0
 40
204.0
 40
204.0
 40
204.0
 40
205.0
 40
205.0
 40
205.0
 40
206.0
 40
206.0
 40
206.0
 40
207.0
 40
207.0
 40
207.0
 40
208.0
 40
208.0
 40
208.0
 40
209.0
 40
209.0
 40
209.0
 40
210.0
 40
210.0
 40
210.0
 40
211.0
 40
211.0
 40
211.0
 40
212.0
 40
212.0
 40
212.0
 40
213.0
 40
213.0
 40
213.0
 40
214.0
 40
214.0
 40
214.0
 40
215.0
 40
215.0
 40
215.0
 40
216.0
 40
216.0
 40
216.0
 40
217.0
 40
217.0
 40
217.0
 40
218.0
 40
218.0
 40
218.0
 40
219.0
 40
219.0
 40
219.0
 40
220.0
 40
220.0
 40
220.0
 40
221.0
 40
221.0
 40
221.0
 40
222.0
 40
222.0
 40
222.0
 40
223.0
 40
223.0
 40
223.0
 40
224.0
 40
224.0
 40
224.0
 40
225.0
 40
225.0
 40
225.0
 40
226.0
 40
226.0
 40
226.0
 40
227.0
 40
227.0
 40
227.0
 40
228.0
 40
228.0
 40
228.0
 40
229.0
 40
229.0
 40
229.0
 40
230.0
 40
230.0
 40
230.0
 40
231.0
 40
231.0
 40
231.0
 40
232.0
 40
232.0
 40
232.0
 40
233.0
 40
233.0
 40
233.0
 40
234.0
 40
234.0
 40
234.0
 40
235.0
 40
235.0
 40
235.0
 40
236.0
 40
236.0
 40
236.0
 40
237.0
 40
237.0
 40
237.0
 40
238.0
 40
238.0
 40
238.0
 40
239.0
 40
239.0
 40
239.0
 40
240.0
 40
240.0
 40
240.0
 40
241.0
 40
241.0
 40
241.0
 40
242.0
 40
242.0
 40
242.0
 40
243.0
 40
243.0
 40
243.0
 40
244.0
 40
244.0
 40
244.0
 40
245.0
 40
245.0
 40
245.0
 40
246.0
 40
246.0
 40
246.0
 40
247.0
 40
247.0
 40
247.0
 40
248.0
 40
248.0
 40
248.0
 40
249.0
 40
249.0
 40
249.0
 40
250.0
 40
250.0
 40
250.0
 40
251.0
 40
251.0
 40
251.0
 40
252.0
 40
252.0
 40
252.0
 40
253.0
 40
253.0
 40
253.0
 40
254.0
 40
254.0
 40
254.0
 40
255.0
 40
255.0
 40
255.0
 40
256.0
 40
256.0
 40
256.0
 40
257.0
 40
257.0
 40
257.0
 40
258.0
 40
258.0
 40
258.0
 40
259.0
 40
259.0
 40
259.0
 40
260.0
 40
260.0
 40
260.0
 40
261.0
 40
261.0
 40
261.0
 40
262.0
 40
262.0
 40
262.0
 40
263.0
 40
263.0
 40
263.0
 40
264.0
 40
264.0
 40
264.0
 40
265.0
 40
265.0
 40
265.0
 40
266.0
 40
266.0
 40
266.0
 40
267.0
 40
267.0
 40
267.0
 40
268.0
 40
268.0
 40
268.0
 40
269.0
 40
269.0
 40
269.0
 40
270.0
 40
270.0
 40
270.0
 40
271.0
 40
271.0
 40
271.0
 40
272.0
 40
272.0
 40
272.0
 40
273.0
 40
273.0
 40
273.0
 40
274.0
 40
274.0
 40
274.0
 40
275.0
 40
275.0
 40
275.0
 40
276.0
 40
276.0
 40
276.0
 40
277.0
 40
277.0
 40
277.0
 40
278.0
 40
278.0
 40
278.0
 40
279.0
 40
279.0
 40
279.0
 40
280.0
 40
280.0
 40
280.0
 40
281.0
 40
281.0
 40
281.0
 40
282.0
 40
282.0
 40
282.0
 40
283.0
 40
283.0
 40
283.0
 40
284.0
 40
284.0
 40
284.0
 40
285.0
 40
285.0
 40
285.0
 40
286.0
 40
286.0
 40
286.0
 40
287.0
 40
287.0
 40
287.0
 40
288.0
 40
288.0
 40
288.0
 40
289.0
 40
289.0
 40
289.0
 40
290.0
 40
290.0
 40
290.0
 40
291.0
 40
291.0
 40
291.0
 40
292.0
 40
292.0
 40
292.0
 40
293.0
 40
293.0
 40
293.0
 40
294.0
 40
294.0
 40
294.0
 40
295.0
 40
295.0
 40
295.0
 40
296.0
 40
296.0
 40
296.0
 40
297.0
 40
297.0
 40
297.0
 40
298.0
 40
298.0
 40
298.0
 40
299.0
 40
299.0
 40
299.0
 40
300.0
 40
300.0
 40
300.0
 40
301.0
 40
301.0
 40
301.0
 40
302.0
 40
302.0
 40
302.0
 40
303.0
 40
303.0
 40
303.0
 40
304.0
 40
304.0
 40
304.0
 40
305.0
 40
305.0
 40
305.0
 40
306.0
 40
306.0
 40
306.0
 40
307.0
 40
307.0
 40
307.0
 40
308.0
 40
308.0
 40
308.0
 40
309.0
 40
309.0
 40
309.0
 40
310.0
 40
310.0
 40
310.0
 40
311.0
 40
311.0
 40
311.0
 40
312.0
 40
312.0
 40
312.0
 40
313.0
 40
313.0
 40
313.0
 40
314.0
 40
314.0
 40
314.0
 40
315.0
 40
315.0
 40
315.0
 40
316.0
 40
316.0
 40
316.0
 40
317.0
 40
317.0
 40
317.0
 40
318.0
 40
318.0
 40
318.0
 40
319.0
 40
319.0
 40
319.0
 40
320.0
 40
320.0
 40
320.0
 40
321.0
 40
321.0
 40
321.0
 40
322.0
 40
322.0
 40
322.0
 40
323.0
 40
323.0
 40
323.0
 40
324.0
 40
324.0
 40
324.0
 40
325.0
 40
325.0
 40
325.0
 40
326.0
 40
326.0
 40
326.0
 40
327.0
 40
327.0
 40
327.0
 40
328.0
 40
328.0
 40
328.0
 40
329.0
 40
329.0
 40
329.0
 40
330.0
 40
330.0
 40
330.0
 40
331.0
 40
331.0
 40
331.0
 40
332.0
 40
332.0
 40
332.0
 40
333.0
 40
333.0
 40
333.0
 40
334.0
 40
334.0
 40
334.0
 40
335.0
 40
335.0
 40
335.0
 40
336.0
 40
336.0
 40
336.0
 40
337.0
 40
337.0
 40
337.0
 40
338.0
 40
338.0
 40
338.0
 40
339.0
 40
339.0
 40
339.0
 40
340.0
 40
340.0
 40
340.0
 40
341.0
 40
341.0
 40
341.0
 40
342.0
 40
342.0
 40
342.0
 40
343.0
 40
343.0
 40
343.0
 40
344.0
 40
344.0
 40
344.0
 40
345.0
 40
345.0
 40
345.0
 40
346.0
 40
346.0
 40
346.0
 40
347.0
 40
347.0
 40
347.0
 40
348.0
 40
348.0
 40
348.0
 40
349.0
 40
349.0
 40
349.0
 40
350.0
 40
350.0
 40
350.0
 40
351.0
 40
351.0
 40
351.0
 40
352.0
 40
352.0
 40
352.0
 40
353.0
 40
353.0
 40
353.0
 40
354.0
 40
354.0
 40
354.0
 40
355.0
 40
355.0
 40
355.0
 40
356.0
 40
356.0
 40
356.0
 40
357.0
 40
357.0
 40
357.0
 40
358.0
 40
358.0
 40
358.0
 40
359.0
 40
359.0
 40
359.0
 40
360.0
 40
360.0
 40
360.0
 40
361.0
 40
361.0
 40
361.0
 40
362.0
 40
362.0
 40
362.0
 40
363.0
 40
363.0
 40
363.0
 40
364.0
 40
364.0
 40
364.0
 40
365.0
 40
365.0
 40
365.0
 40
366.0
 40
366.0
 40
366.0
 40
367.0
 40
367.0
 40
367.0
 40
368.0
 40
368.0
 40
368.0
 40
369.0
 40
369.0
 40
369.0
 40
370.0
 40
370.0
 40
370.0
 40
371.0
 40
371.0
 40
371.0
 40
372.0
 40
372.0
 40
372.0
 40
373.0
 40
373.0
 40
373.0
 40
374.0
 40
374.0
 40
374.0
 40
375.0
 40
375.0
 40
375.0
 40
376.0
 40
376.0
 40
376.0
 40
377.0
 40
377.0
 40
377.0
 40
378.0
 40
378.0
 40
378.0
 40
379.0
 40
379.0
 40
379.0
 40
380.0
 40
380.0
 40
380.0
 40
380.0
 10
112.9921668351538
 20
-89.25348910390814
 30
0.0
 10
112.9921668351538
 20
-89.25348910390814
 30
0.0
 10
112.2987235323668
 20
-88.86316686277456
 30
0.0
 10
111.4809552828291
 20
-88.42799588063374
 30
0.0
 10
110.66318703329
 20
-87.99282489849197
 30
0.0
 10
109.7210938370002
 20
-87.51280517534296
 30
0.0
 10
109.2237940499939
 20
-87.33341021130985
 30
0.0
 10
108.7264942630024
 20
-87.15401524723278
 30
0.0
 10
107.7636616860221
 20
-86.93751456686368
 30
0.0
 10
106.9355237461348
 20
-86.6341031061234
 30
0.0
 10
106.1073858062472
 20
-86.33069164538378
 30
0.0
 10
105.4139425034528
 20
-85.94036940427233
 30
0.0
 10
105.4554212648327
 20
-85.41333131871188
 30
0.0
 10
105.4863422372661
 20
-85.02044277639388
 30
0.0
 10
106.042433677825
 20
-84.81392029941654
 30
0.0
 10
106.6875638490678
 20
-84.68709672160168
 30
0.0
 10
107.3326940203115
 20
-84.56027314378585
 30
0.0
 10
108.0668629222404
 20
-84.51314846513316
 30
0.0
 10
108.4539388174115
 20
-84.43905551946479
 30
0.0
 10
108.8410147125899
 20
-84.36496257383075
 30
0.0
 10
109.5906441007347
 20
-84.1213936240189
 30
0.0
 10
110.2435045150839
 20
-83.89634791061549
 30
0.0
 10
110.8963649294337
 20
-83.67130219721302
 30
0.0
 10
111.4524563699896
 20
-83.4647797202177
 30
0.0
 10
111.4524563699896
 20
-83.4647797202177
 30
0.0
 10
111.6491809242674
 20
-83.40085900346733
 30
0.0
 10
111.8236381588744
 20
-83.30009489737984
 30
0.0
 10
111.9706716026401
 20
-83.17260905521067
 30
0.0
 10
112.1177050464052
 20
-83.04512321304247
 30
0.0
 10
112.2373146993282
 20
-82.89091563479198
 30
0.0
 10
112.3243440902381
 20
-82.72010797371627
 30
0.0
 10
112.4113734811486
 20
-82.54930031264057
 30
0.0
 10
112.4658226100466
 20
-82.36189256873868
 30
0.0
 10
112.4825350057594
 20
-82.16800639526706
 30
0.0
 10
112.4992474014723
 20
-81.97412022179608
 30
0.0
 10
112.4782230639994
 20
-81.77375561875536
 30
0.0
 10
112.4143055221722
 20
-81.57703423940008
 30
0.0
 10
112.4143055221722
 20
-81.57703423940008
 30
0.0
 10
111.8901861240778
 20
-79.96395766274448
 30
0.0
 10
111.8901861240778
 20
-79.96395766274448
 30
0.0
 10
111.8901861240778
 20
-79.96395766274448
 30
0.0
 10
111.3660667259841
 20
-78.3508810860892
 30
0.0
 10
111.3660667259841
 20
-78.3508810860892
 30
0.0
 10
111.3660667259841
 20
-78.3508810860892
 30
0.0
 10
110.8419473278897
 20
-76.7378045094336
 30
0.0
 10
110.8419473278897
 20
-76.7378045094336
 30
0.0
 10
110.8419473278897
 20
-76.7378045094336
 30
0.0
 10
110.3178279297954
 20
-75.124727932778
 30
0.0
 10
110.3178279297954
 20
-75.124727932778
 30
0.0
 10
110.2539072130453
 20
-74.92800655342334
 30
0.0
 10
110.1531439006891
 20
-74.7535501125467
 30
0.0
 10
110.0256590506836
 20
-74.60651627191582
 30
0.0
 10
109.898174200678
 20
-74.45948243128558
 30
0.0
 10
109.7439678130231
 20
-74.33987119090047
 30
0.0
 10
109.5731609456781
 20
-74.25284021252888
 30
0.0
 10
109.4023540783331
 20
-74.16580923415826
 30
0.0
 10
109.2149467312974
 20
-74.11135851779925
 30
0.0
 10
109.0210599625283
 20
-74.09464572522151
 30
0.0
 10
108.8271731937586
 20
-74.07793293264314
 30
0.0
 10
108.6268070032555
 20
-74.09895806384543
 30
0.0
 10
108.4300824489784
 20
-74.16287878059579
 30
0.0
 10
108.4300824489784
 20
-74.16287878059579
 30
0.0
 10
107.858805196372
 20
-74.32266043092223
 30
0.0
 10
107.1983526697276
 20
-74.52433573099184
 30
0.0
 10
106.5379001430826
 20
-74.72601103106146
 30
0.0
 10
105.7882723423991
 20
-74.96957998087267
 30
0.0
 10
105.4315712462458
 20
-75.13715457984289
 30
0.0
 10
105.0748701501066
 20
-75.30472917884487
 30
0.0
 10
104.4532170125394
 20
-75.69813709273035
 30
0.0
 10
103.8567518174486
 20
-75.97473187482876
 30
0.0
 10
103.2602866223585
 20
-76.25132665692621
 30
0.0
 10
102.6890093697448
 20
-76.41110830723788
 30
0.0
 10
102.4330600435126
 20
-76.1114303790903
 30
0.0
 10
102.0897176276919
 20
-75.70942836817926
 30
0.0
 10
102.4212984931633
 20
-74.98605488602276
 30
0.0
 10
102.9129343914296
 20
-74.25382204952737
 30
0.0
 10
103.4045702896943
 20
-73.52158921303132
 30
0.0
 10
104.0562612207547
 20
-72.78049702219606
 30
0.0
 10
104.3531389361099
 20
-72.34305759393004
 30
0.0
 10
104.6500166515052
 20
-71.90561816568936
 30
0.0
 10
105.1300363746551
 20
-70.96352496939954
 30
0.0
 10
105.5358366689561
 20
-70.13079163016965
 30
0.0
 10
105.941636963256
 20
-69.29805829093944
 30
0.0
 10
106.2732178287085
 20
-68.57468480876979
 30
0.0
 10
106.2732178287085
 20
-68.57468480876979
 30
0.0
 10
106.3671256894364
 20
-68.39038372663413
 30
0.0
 10
106.4192364878364
 20
-68.19577446454016
 30
0.0
 10
106.433060696145
 20
-68.00166088723823
 30
0.0
 10
106.4468849044524
 20
-67.80754730993532
 30
0.0
 10
106.4224225226684
 20
-67.61392941742378
 30
0.0
 10
106.3631840230254
 20
-67.43161107445327
 30
0.0
 10
106.3039455233825
 20
-67.24929273148341
 30
0.0
 10
106.2099309058827
 20
-67.07827393805456
 30
0.0
 10
106.084650642759
 20
-66.92935855891675
 30
0.0
 10
105.9593703796347
 20
-66.78044317977893
 30
0.0
 10
105.8028244708888
 20
-66.65363121493276
 30
0.0
 10
105.6185233887538
 20
-66.55972652912726
 30
0.0
 10
105.6185233887538
 20
-66.55972652912726
 30
0.0
 10
104.8723149797127
 20
-66.1795136729004
 30
0.0
 10
104.8723149797127
 20
-66.1795136729004
 30
0.0
 10
104.8723149797127
 20
-66.1795136729004
 30
0.0
 10
104.126106570672
 20
-65.79930081667388
 30
0.0
 10
104.126106570672
 20
-65.79930081667388
 30
0.0
 10
104.126106570672
 20
-65.79930081667388
 30
0.0
 10
103.379898161631
 20
-65.41908796044767
 30
0.0
 10
103.379898161631
 20
-65.41908796044767
 30
0.0
 10
103.379898161631
 20
-65.41908796044767
 30
0.0
 10
102.6336897525902
 20
-65.0388751042208
 30
0.0
 10
102.6336897525902
 20
-65.0388751042208
 30
0.0
 10
102.4493886704552
 20
-64.9449672434922
 30
0.0
 10
102.254780202092
 20
-64.89285644509197
 30
0.0
 10
102.0606676169527
 20
-64.87903223678397
 30
0.0
 10
101.8665550318137
 20
-64.86520802847598
 30
0.0
 10
101.6729383298977
 20
-64.88967041026056
 30
0.0
 10
101.4906207806582
 20
-64.9489089099029
 30
0.0
 10
101.3083032314191
 20
-65.00814740954556
 30
0.0
 10
101.1372848348551
 20
-65.10216202704629
 30
0.0
 10
100.9883688604198
 20
-65.22744229016995
 30
0.0
 10
100.8394528859842
 20
-65.35272255329329
 30
0.0
 10
100.7126393336754
 20
-65.50926846203988
 30
0.0
 10
100.6187314729477
 20
-65.69356954417522
 30
0.0
 10
100.6187314729477
 20
-65.69356954417522
 30
0.0
 10
100.3745537683187
 20
-66.36778797308395
 30
0.0
 10
99.96431174612734
 20
-67.4166742064972
 30
0.0
 10
99.55406972393789
 20
-68.46556043991046
 30
0.0
 10
98.97776338418733
 20
-69.88911447782888
 30
0.0
 10
98.31350611394518
 20
-71.38778569584734
 30
0.0
 10
97.64924884370336
 20
-72.88645691386708
 30
0.0
 10
96.8970406429709
 20
-74.46024531198749
 30
0.0
 10
96.13499489881667
 20
-75.80960026580436
 30
0.0
 10
95.37294915466212
 20
-77.15895521962254
 30
0.0
 10
94.60106586708612
 20
-78.28387672913783
 30
0.0
 10
93.89745842315786
 20
-78.884814169947
 30
0.0
 10
93.72026040718534
 20
-79.03615555095851
 30
0.0
 10
93.41003592695344
 20
-79.18383666100449
 30
0.0
 10
93.04437309058775
 20
-79.32022879925556
 30
0.0
 10
92.67871025422271
 20
-79.45662093750533
 30
0.0
 10
92.25760906172579
 20
-79.58172410396051
 30
0.0
 10
91.8586576212258
 20
-79.68790959778913
 30
0.0
 10
91.4597061807255
 20
-79.79409509161678
 30
0.0
 10
91.14311643344094
 20
-79.95702149595296
 30
0.0
 10
90.8961585756714
 20
-80.0555722352645
 30
0.0
 10
90.64920071790186
 20
-80.15412297457671
 30
0.0
 10
90.47187474964831
 20
-80.1882980488643
 30
0.0
 10
90.35145086721037
 20
-80.03698088259513
 30
0.0
 10
90.0327845049359
 20
-79.63656453695513
 30
0.0
 10
90.23659151507337
 20
-79.17622229661333
 30
0.0
 10
90.59421424187386
 20
-78.56564826877097
 30
0.0
 10
90.95183696867498
 20
-77.95507424092892
 30
0.0
 10
91.46327541213914
 20
-77.19426842558565
 30
0.0
 10
91.75987191651805
 20
-76.19292492994332
 30
0.0
 10
92.05646842089665
 20
-75.19158143430131
 30
0.0
 10
92.29755616732724
 20
-74.14990843117944
 30
0.0
 10
92.35347727176757
 20
-73.27791228700933
 30
0.0
 10
92.40939837620694
 20
-72.40591614283858
 30
0.0
 10
92.28015283865572
 20
-71.70359685762054
 30
0.0
 10
91.83608277507103
 20
-71.38096079778458
 30
0.0
 10
91.44205292049622
 20
-71.09468110863928
 30
0.0
 10
90.81393668378357
 20
-71.17818470148654
 30
0.0
 10
90.09340412191256
 20
-71.46447241590036
 30
0.0
 10
89.37287156004187
 20
-71.75076013031513
 30
0.0
 10
88.55992267301254
 20
-72.2398319662971
 30
0.0
 10
87.79622751780532
 20
-72.76468876342216
 30
0.0
 10
87.03253236259843
 20
-73.28954556054785
 30
0.0
 10
86.53073224578628
 20
-73.9297503930022
 30
0.0
 10
86.1135352644898
 20
-74.3989594890821
 30
0.0
 10
85.69633828319266
 20
-74.86816858516265
 30
0.0
 10
85.36374443741119
 20
-75.16638194486842
 30
0.0
 10
84.93846182426435
 20
-75.00725579649631
 30
0.0
 10
84.81065295346886
 20
-74.95943410636802
 30
0.0
 10
84.79492118340444
 20
-74.83297757388438
 30
0.0
 10
84.80720868852248
 20
-74.64575323452559
 30
0.0
 10
84.8194961936402
 20
-74.45852889516678
 30
0.0
 10
84.85980297394005
 20
-74.21053674893253
 30
0.0
 10
84.84407120387563
 20
-73.91964383130559
 30
0.0
 10
84.82833943381122
 20
-73.62875091367769
 30
0.0
 10
84.8204735487787
 20
-73.31886806972012
 30
0.0
 10
84.83227237632732
 20
-73.04372860250959
 30
0.0
 10
84.84407120387563
 20
-72.76858913529873
 30
0.0
 10
84.87553474400542
 20
-72.52819304483424
 30
0.0
 10
84.93846182426435
 20
-72.3762736341944
 30
0.0
 10
85.29256082434931
 20
-71.52140302576574
 30
0.0
 10
86.12389996171495
 20
-70.43967808422775
 30
0.0
 10
87.17172798021535
 20
-69.29795538916274
 30
0.0
 10
88.21955599871639
 20
-68.15623269409804
 30
0.0
 10
89.48387289835185
 20
-66.95451224550533
 30
0.0
 10
90.70392742297646
 20
-65.85965062296624
 30
0.0
 10
91.92398194760172
 20
-64.76478900042748
 30
0.0
 10
93.09977409721546
 20
-63.77678620394235
 30
0.0
 10
93.9705526156737
 20
-63.06249881309117
 30
0.0
 10
94.84133113413193
 20
-62.34821142224097
 30
0.0
 10
95.4070960214337
 20
-61.90763943702473
 30
0.0
 10
95.4070960214337
 20
-61.90763943702473
 30
0.0
 10
95.55335835587168
 20
-61.76137710258644
 30
0.0
 10
95.66305510670031
 20
-61.5923958157373
 30
0.0
 10
95.73618627391963
 20
-61.41205505268354
 30
0.0
 10
95.80931744113893
 20
-61.23171428962915
 30
0.0
 10
95.84588302474826
 20
-61.04001405036916
 30
0.0
 10
95.84588302474826
 20
-60.8483138111095
 30
0.0
 10
95.84588302474826
 20
-60.65661357185016
 30
0.0
 10
95.80931744113893
 20
-60.4649133325905
 30
0.0
 10
95.73618627391963
 20
-60.2845725695361
 30
0.0
 10
95.66305510670031
 20
-60.10423180648138
 30
0.0
 10
95.55335835587168
 20
-59.93525051963256
 30
0.0
 10
95.4070960214337
 20
-59.78898818519427
 30
0.0
 10
95.4070960214337
 20
-59.78898818519427
 30
0.0
 10
94.81489993290269
 20
-59.19679527158667
 30
0.0
 10
94.81489993290269
 20
-59.19679527158667
 30
0.0
 10
94.81489993290269
 20
-59.19679527158667
 30
0.0
 10
94.22270384437263
 20
-58.60460235797876
 30
0.0
 10
94.22270384437263
 20
-58.60460235797876
 30
0.0
 10
94.22270384437263
 20
-58.60460235797876
 30
0.0
 10
93.63050775584192
 20
-58.01240944437085
 30
0.0
 10
93.63050775584192
 20
-58.01240944437085
 30
0.0
 10
93.63050775584192
 20
-58.01240944437085
 30
0.0
 10
93.03831166731155
 20
-57.42021653076293
 30
0.0
 10
93.03831166731155
 20
-57.42021653076293
 30
0.0
 10
92.89204933287326
 20
-57.27395419632464
 30
0.0
 10
92.72306804602444
 20
-57.164257445496
 30
0.0
 10
92.54272728296971
 20
-57.09112627827669
 30
0.0
 10
92.36238651991563
 20
-57.01799511105771
 30
0.0
 10
92.17068628065597
 20
-56.98142952744773
 30
0.0
 10
91.97898604139598
 20
-56.98142952744773
 30
0.0
 10
91.78728580213665
 20
-56.98142952744773
 30
0.0
 10
91.59558556287699
 20
-57.01799511105771
 30
0.0
 10
91.41524479982323
 20
-57.09112627827669
 30
0.0
 10
91.23490403676851
 20
-57.164257445496
 30
0.0
 10
91.06592274991873
 20
-57.27395419632464
 30
0.0
 10
90.91966041548108
 20
-57.42021653076293
 30
0.0
 10
90.91966041548108
 20
-57.42021653076293
 30
0.0
 10
90.33415528537752
 20
-57.95910421568749
 30
0.0
 10
89.66757780837497
 20
-58.60237297010022
 30
0.0
 10
89.00100033137146
 20
-59.2456417245139
 30
0.0
 10
88.2533505074696
 20
-59.99329154841543
 30
0.0
 10
87.92906111987271
 20
-60.41081582637161
 30
0.0
 10
87.60477173231337
 20
-60.82834010435603
 30
0.0
 10
87.10133480106359
 20
-61.67714622050102
 30
0.0
 10
86.5568637703765
 20
-62.37099312102826
 30
0.0
 10
86.01239273969003
 20
-63.06484002155581
 30
0.0
 10
85.42688760956754
 20
-63.60372770646561
 30
0.0
 10
84.93846182426435
 20
-63.40141512197997
 30
0.0
 10
84.57435799712091
 20
-63.25059837862693
 30
0.0
 10
84.54978488674458
 20
-62.65790547913684
 30
0.0
 10
84.62852428834259
 20
-62.00516007261848
 30
0.0
 10
84.70726368993964
 20
-61.35241466609981
 30
0.0
 10
84.889315603512
 20
-60.63961675255383
 30
0.0
 10
84.93846182426435
 20
-60.24858998108932
 30
0.0
 10
84.98760804505169
 20
-59.8575632096293
 30
0.0
 10
84.98760804505169
 20
-59.06935692440679
 30
0.0
 10
84.97532148985485
 20
-58.37890733204889
 30
0.0
 10
84.96303493465737
 20
-57.68845773969163
 30
0.0
 10
84.93846182426435
 20
-57.09576484019865
 30
0.0
 10
84.93846182426435
 20
-57.09576484019865
 30
0.0
 10
84.93846182426435
 20
-56.88891545774263
 30
0.0
 10
84.89654093995533
 20
-56.69185833032253
 30
0.0
 10
84.820731725521
 20
-56.51262541682331
 30
0.0
 10
84.7449225110873
 20
-56.33339250332505
 30
0.0
 10
84.63522496652796
 20
-56.17198380374735
 30
0.0
 10
84.49967164602668
 20
-56.03643127697678
 30
0.0
 10
84.36411832552542
 20
-55.90087875020652
 30
0.0
 10
84.20270922908317
 20
-55.79118239624371
 30
0.0
 10
84.02347691088205
 20
-55.71537417397266
 30
0.0
 10
83.84424459268158
 20
-55.63956595170162
 30
0.0
 10
83.64718905272255
 20
-55.59764586112361
 30
0.0
 10
83.4403428451893
 20
-55.59764586112361
 30
0.0
 10
83.4403428451893
 20
-55.59764586112361
 30
0.0
 10
81.74425474217661
 20
-55.59764586112361
 30
0.0
 10
81.74425474217661
 20
-55.59764586112361
 30
0.0
 10
81.74425474217661
 20
-55.59764586112361
 30
0.0
 10
80.0481666391639
 20
-55.59764586112361
 30
0.0
 10
80.0481666391639
 20
-55.59764586112361
 30
0.0
 10
80.0481666391639
 20
-55.59764586112361
 30
0.0
 10
78.3520785361512
 20
-55.59764586112361
 30
0.0
 10
78.3520785361512
 20
-55.59764586112361
 30
0.0
 10
78.3520785361512
 20
-55.59764586112361
 30
0.0
 10
76.65599043313784
 20
-55.59764586112361
 30
0.0
 10
76.65599043313784
 20
-55.59764586112361
 30
0.0
 10
76.44914422560493
 20
-55.59764586112361
 30
0.0
 10
76.2520886856459
 20
-55.63956595170162
 30
0.0
 10
76.07285636744511
 20
-55.71537417397266
 30
0.0
 10
75.89362404924464
 20
-55.79118239624371
 30
0.0
 10
75.73221495280143
 20
-55.90087875020652
 30
0.0
 10
75.59666163230047
 20
-56.03643127697678
 30
0.0
 10
75.4611083117992
 20
-56.17198380374735
 30
0.0
 10
75.35141076724051
 20
-56.33339250332505
 30
0.0
 10
75.27560155280584
 20
-56.51262541682331
 30
0.0
 10
75.19979233837151
 20
-56.69185833032253
 30
0.0
 10
75.15787145406313
 20
-56.88891545774263
 30
0.0
 10
75.15787145406313
 20
-57.09576484019865
 30
0.0
 10
75.15787145406313
 20
-57.09576484019865
 30
0.0
 10
75.13329834368679
 20
-57.68845773968906
 30
0.0
 10
75.12101178849862
 20
-58.37890733204569
 30
0.0
 10
75.10872523331045
 20
-59.0693569244023
 30
0.0
 10
75.10872523331045
 20
-59.8575632096248
 30
0.0
 10
75.15787145406313
 20
-60.24858998108932
 30
0.0
 10
75.2070176748511
 20
-60.63961675254902
 30
0.0
 10
75.38906958842988
 20
-61.352414666112
 30
0.0
 10
75.46780899002212
 20
-62.00516007263901
 30
0.0
 10
75.54654839161371
 20
-62.657905479167
 30
0.0
 10
75.52197528122005
 20
-63.25059837865965
 30
0.0
 10
75.15787145406313
 20
-63.40141512197997
 30
0.0
 10
74.6694456687776
 20
-63.60372770650925
 30
0.0
 10
74.08394053867434
 20
-63.06484002158501
 30
0.0
 10
73.5394695079927
 20
-62.37099312103948
 30
0.0
 10
72.99499847731042
 20
-61.67714622049428
 30
0.0
 10
72.49156154605102
 20
-60.82834010432747
 30
0.0
 10
72.16727215845476
 20
-60.41081582637161
 30
0.0
 10
71.84298277089606
 20
-59.99329154838623
 30
0.0
 10
71.09533294699388
 20
-59.24564172448342
 30
0.0
 10
70.4287554699814
 20
-58.60237297007808
 30
0.0
 10
69.76217799296857
 20
-57.95910421567209
 30
0.0
 10
69.1766728628464
 20
-57.42021653076293
 30
0.0
 10
69.1766728628464
 20
-57.42021653076293
 30
0.0
 10
69.03041052840811
 20
-57.27395419632464
 30
0.0
 10
68.86142924155897
 20
-57.164257445496
 30
0.0
 10
68.68108847850522
 20
-57.09112627827669
 30
0.0
 10
68.50074771545017
 20
-57.01799511105771
 30
0.0
 10
68.30904747619051
 20
-56.98142952744773
 30
0.0
 10
68.11734723693117
 20
-56.98142952744773
 30
0.0
 10
67.9256469976712
 20
-56.98142952744773
 30
0.0
 10
67.73394675841185
 20
-57.01799511105771
 30
0.0
 10
67.55360599535713
 20
-57.09112627827669
 30
0.0
 10
67.37326523230305
 20
-57.164257445496
 30
0.0
 10
67.20428394545424
 20
-57.27395419632464
 30
0.0
 10
67.05802161101562
 20
-57.42021653076293
 30
0.0
 10
67.05802161101562
 20
-57.42021653076293
 30
0.0
 10
66.4658255224862
 20
-58.01240944437085
 30
0.0
 10
66.4658255224862
 20
-58.01240944437085
 30
0.0
 10
66.4658255224862
 20
-58.01240944437085
 30
0.0
 10
65.87362943395517
 20
-58.60460235797876
 30
0.0
 10
65.87362943395517
 20
-58.60460235797876
 30
0.0
 10
65.87362943395517
 20
-58.60460235797876
 30
0.0
 10
65.28143334542416
 20
-59.19679527158667
 30
0.0
 10
65.28143334542416
 20
-59.19679527158667
 30
0.0
 10
65.28143334542416
 20
-59.19679527158667
 30
0.0
 10
64.68923725689378
 20
-59.78898818519427
 30
0.0
 10
64.68923725689378
 20
-59.78898818519427
 30
0.0
 10
64.54297492245516
 20
-59.93525051963256
 30
0.0
 10
64.43327817162653
 20
-60.10423180648138
 30
0.0
 10
64.36014700440754
 20
-60.2845725695361
 30
0.0
 10
64.28701583718887
 20
-60.4649133325905
 30
0.0
 10
64.2504502535789
 20
-60.65661357185016
 30
0.0
 10
64.2504502535789
 20
-60.8483138111095
 30
0.0
 10
64.2504502535789
 20
-61.04001405036916
 30
0.0
 10
64.28701583718887
 20
-61.23171428962915
 30
0.0
 10
64.36014700440754
 20
-61.41205505268354
 30
0.0
 10
64.43327817162653
 20
-61.5923958157373
 30
0.0
 10
64.54297492245516
 20
-61.76137710258644
 30
0.0
 10
64.68923725689378
 20
-61.90763943702473
 30
0.0
 10
64.68923725689378
 20
-61.90763943702473
 30
0.0
 10
65.2550021442148
 20
-62.34821142223263
 30
0.0
 10
66.12578066269646
 20
-63.06249881307321
 30
0.0
 10
66.99655918117908
 20
-63.77678620391443
 30
0.0
 10
68.17235133082139
 20
-64.76478900038738
 30
0.0
 10
69.39240585546588
 20
-65.85965062291876
 30
0.0
 10
70.61246038011039
 20
-66.95451224544951
 30
0.0
 10
71.87677727975516
 20
-68.15623269403835
 30
0.0
 10
72.92460529824145
 20
-69.29795538910948
 30
0.0
 10
73.9724333167274
 20
-70.43967808418027
 30
0.0
 10
74.80377245405454
 20
-71.52140302573365
 30
0.0
 10
75.15787145406313
 20
-72.3762736341944
 30
0.0
 10
75.22079853433554
 20
-72.52819304482911
 30
0.0
 10
75.25226207447142
 20
-72.76858913528974
 30
0.0
 10
75.26406090202326
 20
-73.04372860249931
 30
0.0
 10
75.27585972957414
 20
-73.31886806970923
 30
0.0
 10
75.26799384454
 20
-73.62875091366742
 30
0.0
 10
75.25226207447142
 20
-73.91964383129692
 30
0.0
 10
75.2365303044038
 20
-74.2105367489261
 30
0.0
 10
75.27683708470236
 20
-74.45852889516775
 30
0.0
 10
75.28912458981719
 20
-74.64575323453103
 30
0.0
 10
75.30141209493235
 20
-74.83297757389464
 30
0.0
 10
75.2856803248644
 20
-74.95943410638085
 30
0.0
 10
75.15787145406313
 20
-75.00725579649631
 30
0.0
 10
74.73258884093619
 20
-75.16638194489954
 30
0.0
 10
74.39999499516081
 20
-74.86816858520307
 30
0.0
 10
73.98279801386721
 20
-74.39895948912574
 30
0.0
 10
73.56560103257361
 20
-73.92975039304905
 30
0.0
 10
73.06380091576177
 20
-73.28954556059149
 30
0.0
 10
72.30010576056098
 20
-72.76468876347542
 30
0.0
 10
71.53641060536019
 20
-72.23983196635903
 30
0.0
 10
70.72346171833438
 20
-71.75076013038122
 30
0.0
 10
70.00292915645824
 20
-71.46447241596036
 30
0.0
 10
69.28239659458242
 20
-71.17818470153884
 30
0.0
 10
68.65428035785693
 20
-71.09468110867456
 30
0.0
 10
68.26025050325613
 20
-71.38096079778458
 30
0.0
 10
67.81618043969999
 20
-71.70359685766066
 30
0.0
 10
67.68693490216418
 20
-72.4059161428989
 30
0.0
 10
67.742856006609
 20
-73.27791228707639
 30
0.0
 10
67.79877711105479
 20
-74.14990843125453
 30
0.0
 10
68.03986485748152
 20
-75.19158143437093
 30
0.0
 10
68.33646136185307
 20
-76.19292493000364
 30
0.0
 10
68.63305786622492
 20
-77.19426842563601
 30
0.0
 10
69.14449630969614
 20
-77.9550742409841
 30
0.0
 10
69.50211903649662
 20
-78.56564826882423
 30
0.0
 10
69.85974176329711
 20
-79.1762222966634
 30
0.0
 10
70.06354877342751
 20
-79.63656453699524
 30
0.0
 10
69.74488241111712
 20
-80.03698088259513
 30
0.0
 10
69.62445852869136
 20
-80.18829804887264
 30
0.0
 10
69.44713256044135
 20
-80.15412297458023
 30
0.0
 10
69.2001747026731
 20
-80.05557223526162
 30
0.0
 10
68.95321684490548
 20
-79.95702149594268
 30
0.0
 10
68.63662709761931
 20
-79.79409509159657
 30
0.0
 10
68.23767565712221
 20
-79.68790959776474
 30
0.0
 10
67.83872421662544
 20
-79.58172410393227
 30
0.0
 10
67.41762302412948
 20
-79.45662093747549
 30
0.0
 10
67.05196018776219
 20
-79.32022879922829
 30
0.0
 10
66.68629735139523
 20
-79.18383666098076
 30
0.0
 10
66.37607287115563
 20
-79.03615555094215
 30
0.0
 10
66.19887485516931
 20
-78.884814169947
 30
0.0
 10
65.49526741129526
 20
-78.28387672907462
 30
0.0
 10
64.72338412374621
 20
-77.15895521952757
 30
0.0
 10
63.96133837960225
 20
-75.80960026569817
 30
0.0
 10
63.19929263545765
 20
-74.46024531186909
 30
0.0
 10
62.44708443471846
 20
-72.88645691375575
 30
0.0
 10
61.78282716446315
 20
-71.3877856957527
 30
0.0
 10
61.11856989420785
 20
-69.88911447774963
 30
0.0
 10
60.54226355443677
 20
-68.46556043985527
 30
0.0
 10
60.13202153222934
 20
-67.4166742064616
 30
0.0
 10
59.72177951002256
 20
-66.3677879730679
 30
0.0
 10
59.47760180537913
 20
-65.69356954417522
 30
0.0
 10
59.47760180537913
 20
-65.69356954417522
 30
0.0
 10
59.38369394465116
 20
-65.50926846203988
 30
0.0
 10
59.2568803923436
 20
-65.35272255329329
 30
0.0
 10
59.107964417908
 20
-65.22744229016995
 30
0.0
 10
58.95904844347207
 20
-65.10216202704629
 30
0.0
 10
58.78803004690874
 20
-65.00814740954556
 30
0.0
 10
58.60571249766893
 20
-64.9489089099029
 30
0.0
 10
58.42339494842945
 20
-64.88967041026056
 30
0.0
 10
58.22977824651444
 20
-64.86520802847598
 30
0.0
 10
58.03566566137513
 20
-64.87903223678397
 30
0.0
 10
57.84155307623552
 20
-64.89285644509197
 30
0.0
 10
57.64694460787226
 20
-64.9449672434922
 30
0.0
 10
57.46264352573723
 20
-65.0388751042208
 30
0.0
 10
57.46264352573723
 20
-65.0388751042208
 30
0.0
 10
56.7164351166962
 20
-65.41908796044767
 30
0.0
 10
56.7164351166962
 20
-65.41908796044767
 30
0.0
 10
56.7164351166962
 20
-65.41908796044767
 30
0.0
 10
55.9702267076558
 20
-65.79930081667388
 30
0.0
 10
55.9702267076558
 20
-65.79930081667388
 30
0.0
 10
55.9702267076558
 20
-65.79930081667388
 30
0.0
 10
55.22401829861413
 20
-66.1795136729004
 30
0.0
 10
55.22401829861413
 20
-66.1795136729004
 30
0.0
 10
55.22401829861413
 20
-66.1795136729004
 30
0.0
 10
54.47780988957405
 20
-66.55972652912726
 30
0.0
 10
54.47780988957405
 20
-66.55972652912726
 30
0.0
 10
54.29350880743871
 20
-66.65363121493276
 30
0.0
 10
54.13696289869244
 20
-66.78044317977893
 30
0.0
 10
54.01168263556877
 20
-66.92935855891675
 30
0.0
 10
53.88640237244511
 20
-67.07827393805456
 30
0.0
 10
53.79238775494439
 20
-67.24929273148341
 30
0.0
 10
53.73314925530205
 20
-67.43161107445327
 30
0.0
 10
53.67391075565939
 20
-67.61392941742378
 30
0.0
 10
53.6494483738748
 20
-67.80754730993532
 30
0.0
 10
53.6632725821828
 20
-68.00166088723823
 30
0.0
 10
53.67709679049079
 20
-68.19577446454016
 30
0.0
 10
53.72920758889136
 20
-68.39038372663413
 30
0.0
 10
53.82311544961932
 20
-68.57468480876979
 30
0.0
 10
53.82311544961932
 20
-68.57468480876979
 30
0.0
 10
54.15469631509041
 20
-69.2980582909266
 30
0.0
 10
54.56049660940127
 20
-70.1307916301504
 30
0.0
 10
54.96629690371116
 20
-70.96352496937355
 30
0.0
 10
55.44631662686081
 20
-71.90561816566402
 30
0.0
 10
55.7431943422176
 20
-72.34305759393004
 30
0.0
 10
56.04007205761289
 20
-72.78049702216879
 30
0.0
 10
56.69176298869066
 20
-73.52158921301978
 30
0.0
 10
57.18339888695531
 20
-74.25382204952993
 30
0.0
 10
57.67503478521996
 20
-74.98605488604073
 30
0.0
 10
58.00661565067084
 20
-75.7094283682107
 30
0.0
 10
57.66327323481557
 20
-76.1114303790903
 30
0.0
 10
57.40732390860965
 20
-76.41110830726033
 30
0.0
 10
56.83604665600333
 20
-76.25132665693422
 30
0.0
 10
56.23958146090968
 20
-75.97473187482203
 30
0.0
 10
55.64311626581635
 20
-75.69813709271045
 30
0.0
 10
55.02146312823599
 20
-75.30472917881342
 30
0.0
 10
54.66476203208234
 20
-75.13715457984289
 30
0.0
 10
54.30806093594345
 20
-74.96957998084059
 30
0.0
 10
53.5584331352603
 20
-74.7260110310284
 30
0.0
 10
52.89798060861172
 20
-74.52433573096745
 30
0.0
 10
52.23752808196249
 20
-74.32266043090586
 30
0.0
 10
51.6662508293488
 20
-74.16287878059579
 30
0.0
 10
51.6662508293488
 20
-74.16287878059579
 30
0.0
 10
51.46952627507103
 20
-74.09895806384543
 30
0.0
 10
51.26916008456957
 20
-74.07793293264314
 30
0.0
 10
51.07527331579985
 20
-74.09464572522151
 30
0.0
 10
50.88138654703044
 20
-74.11135851779925
 30
0.0
 10
50.69397919999407
 20
-74.16580923415826
 30
0.0
 10
50.52317233264905
 20
-74.25284021252888
 30
0.0
 10
50.35236546530405
 20
-74.33987119090047
 30
0.0
 10
50.19815907764976
 20
-74.45948243128558
 30
0.0
 10
50.07067422764389
 20
-74.60651627191582
 30
0.0
 10
49.94318937763866
 20
-74.7535501125467
 30
0.0
 10
49.84242606528186
 20
-74.92800655342334
 30
0.0
 10
49.7785053485318
 20
-75.124727932778
 30
0.0
 10
49.7785053485318
 20
-75.124727932778
 30
0.0
 10
49.25438595043744
 20
-76.7378045094336
 30
0.0
 10
49.25438595043744
 20
-76.7378045094336
 30
0.0
 10
49.25438595043744
 20
-76.7378045094336
 30
0.0
 10
48.73026655234372
 20
-78.3508810860892
 30
0.0
 10
48.73026655234372
 20
-78.3508810860892
 30
0.0
 10
48.73026655234372
 20
-78.3508810860892
 30
0.0
 10
48.20614715424936
 20
-79.96395766274448
 30
0.0
 10
48.20614715424936
 20
-79.96395766274448
 30
0.0
 10
48.20614715424936
 20
-79.96395766274448
 30
0.0
 10
47.68202775615532
 20
-81.57703423940008
 30
0.0
 10
47.68202775615532
 20
-81.57703423940008
 30
0.0
 10
47.61811021432774
 20
-81.77375561875536
 30
0.0
 10
47.59708587685615
 20
-81.97412022179608
 30
0.0
 10
47.61379827256869
 20
-82.16800639526706
 30
0.0
 10
47.63051066828187
 20
-82.36189256873868
 30
0.0
 10
47.68495979717822
 20
-82.54930031264057
 30
0.0
 10
47.77198918808872
 20
-82.72010797371627
 30
0.0
 10
47.85901857899859
 20
-82.89091563479198
 30
0.0
 10
47.97862823192231
 20
-83.04512321304247
 30
0.0
 10
48.12566167568705
 20
-83.17260905521067
 30
0.0
 10
48.27269511945274
 20
-83.30009489737984
 30
0.0
 10
48.44715235405977
 20
-83.40085900346733
 30
0.0
 10
48.64387690833721
 20
-83.4647797202177
 30
0.0
 10
48.64387690833721
 20
-83.4647797202177
 30
0.0
 10
50.14313568462661
 20
-83.95191761984108
 30
0.0
 10
50.14313568462661
 20
-83.95191761984108
 30
0.0
 10
50.14313568462661
 20
-83.95191761984108
 30
0.0
 10
51.642394460916
 20
-84.43905551946479
 30
0.0
 10
51.642394460916
 20
-84.43905551946479
 30
0.0
 10
51.642394460916
 20
-84.43905551946479
 30
0.0
 10
52.37656336286194
 20
-84.48618019811653
 30
0.0
 10
53.11846250790719
 20
-84.6315270123475
 30
0.0
 10
53.86036165295179
 20
-84.77687382658043
 30
0.0
 10
54.60999104109665
 20
-85.02044277639196
 30
0.0
 10
54.64091201349449
 20
-85.41333131871188
 30
0.0
 10
54.68239077492252
 20
-85.94036940426881
 30
0.0
 10
53.98894747213616
 20
-86.33069164540271
 30
0.0
 10
53.16080953224083
 20
-86.63410310615485
 30
0.0
 10
52.33267159234548
 20
-86.93751456690731
 30
0.0
 10
51.36983901534084
 20
-87.15401524727834
 30
0.0
 10
50.87253922833423
 20
-87.33341021130985
 30
0.0
 10
50.37523944134335
 20
-87.51280517538659
 30
0.0
 10
49.43314624505288
 20
-87.99282489853624
 30
0.0
 10
48.61537799551062
 20
-88.42799588066647
 30
0.0
 10
47.79760974596804
 20
-88.86316686279702
 30
0.0
 10
47.10416644317366
 20
-89.25348910390814
 30
0.0
 10
47.10416644317366
 20
-89.25348910390814
 30
0.0
 10
46.91986218611617
 20
-89.34739696463642
 30
0.0
 10
46.76331468990755
 20
-89.47421051694366
 30
0.0
 10
46.6380336330535
 20
-89.62312649137958
 30
0.0
 10
46.51275257619915
 20
-89.77204246581519
 30
0.0
 10
46.41873795869874
 20
-89.94306086237852
 30
0.0
 10
46.35949945905672
 20
-90.12537841161866
 30
0.0
 10
46.30026095941375
 20
-90.3076959608575
 30
0.0
 10
46.27579857762916
 20
-90.5013126627738
 30
0.0
 10
46.28962199220614
 20
-90.69542524791277
 30
0.0
 10
46.30344540678343
 20
-90.88953783305175
 30
0.0
 10
46.3555546177226
 20
-91.08414630141533
 30
0.0
 10
46.44945930352841
 20
-91.26844738355035
 30
0.0
 10
46.44945930352841
 20
-91.26844738355035
 30
0.0
 10
46.82966898483281
 20
-92.01465896751353
 30
0.0
 10
46.82966898483281
 20
-92.01465896751353
 30
0.0
 10
46.82966898483281
 20
-92.01465896751353
 30
0.0
 10
47.20987866613687
 20
-92.76087055147703
 30
0.0
 10
47.20987866613687
 20
-92.76087055147703
 30
0.0
 10
47.20987866613687
 20
-92.76087055147703
 30
0.0
 10
47.59008834744029
 20
-93.50708213544021
 30
0.0
 10
47.59008834744029
 20
-93.50708213544021
 30
0.0
 10
47.59008834744029
 20
-93.50708213544021
 30
0.0
 10
47.970298028745
 20
-94.2532937194034
 30
0.0
 10
47.970298028745
 20
-94.2532937194034
 30
0.0
 10
48.06420588947296
 20
-94.43759480153906
 30
0.0
 10
48.19101944178053
 20
-94.59414071028566
 30
0.0
 10
48.33993541621645
 20
-94.71942097340964
 30
0.0
 10
48.48885139065206
 20
-94.8447012365333
 30
0.0
 10
48.65986978721538
 20
-94.9387158540337
 30
0.0
 10
48.84218733645487
 20
-94.99795435367604
 30
0.0
 10
49.02450488569468
 20
-95.0571928533187
 30
0.0
 10
49.21812158760969
 20
-95.08165523510296
 30
0.0
 10
49.41223417274963
 20
-95.06783102679529
 30
0.0
 10
49.60634675788861
 20
-95.0540068184873
 30
0.0
 10
49.80095522625155
 20
-95.00189602008737
 30
0.0
 10
49.98525630838721
 20
-94.90798815935878
 30
0.0
 10
49.98525630838721
 20
-94.90798815935878
 30
0.0
 10
50.57909657914403
 20
-94.50605824308006
 30
0.0
 10
51.52751031330031
 20
-93.89862595632927
 30
0.0
 10
52.47592404745628
 20
-93.29119366957879
 30
0.0
 10
53.77891124501236
 20
-92.47825901235495
 30
0.0
 10
55.19720509861057
 20
-91.656249530465
 30
0.0
 10
56.61549895220877
 20
-90.83424004857476
 30
0.0
 10
58.14909946184943
 20
-90.00315574201808
 30
0.0
 10
59.55873982017488
 20
-89.35942415659969
 30
0.0
 10
60.9683801785
 20
-88.71569257118195
 30
0.0
 10
62.25406038551023
 20
-88.25931370690346
 30
0.0
 10
63.17651363384918
 20
-88.18671510956828
 30
0.0
 10
63.35143685416536
 20
-88.17294836264226
 30
0.0
 10
63.60577477748767
 20
-88.22028631737848
 30
0.0
 10
63.88888735104197
 20
-88.2990370446299
 30
0.0
 10
64.17199992459753
 20
-88.37778777188227
 30
0.0
 10
64.48388714838475
 20
-88.4879512716492
 30
0.0
 10
64.77390896963297
 20
-88.5998356147814
 30
0.0
 10
65.06393079088214
 20
-88.71171995791391
 30
0.0
 10
65.32889348173595
 20
-88.75258811595864
 30
0.0
 10
65.52294758120652
 20
-88.80185370244702
 30
0.0
 10
65.71700168067613
 20
-88.85111928893538
 30
0.0
 10
65.8401471887606
 20
-88.90878230386771
 30
0.0
 10
65.84653464446758
 20
-89.05425636077449
 30
0.0
 10
65.86392344675505
 20
-89.4502856601203
 30
0.0
 10
65.52659960003695
 20
-89.64597992582954
 30
0.0
 10
65.02447862324765
 20
-89.8657879774774
 30
0.0
 10
64.52235764645833
 20
-90.08559602912555
 30
0.0
 10
63.85543953959719
 20
-90.32951786671265
 30
0.0
 10
63.21363982159734
 20
-90.82200230981418
 30
0.0
 10
62.57184010359813
 20
-91.31448675291603
 30
0.0
 10
61.94646437331598
 20
-91.8575191518597
 30
0.0
 10
61.51438654797057
 20
-92.37852635171087
 30
0.0
 10
61.08230872262451
 20
-92.89953355156239
 30
0.0
 10
60.84352880221455
 20
-93.3985155523217
 30
0.0
 10
60.97492070395842
 20
-93.80289919905579
 30
0.0
 10
61.13724223793199
 20
-94.30247469008928
 30
0.0
 10
61.73822832019317
 20
-94.62779781296527
 30
0.0
 10
62.54840158072485
 20
-94.8347712835739
 30
0.0
 10
63.35857484125718
 20
-95.04174475418253
 30
0.0
 10
64.3779352800597
 20
-95.13036857252254
 30
0.0
 10
65.37700552711566
 20
-95.15654545448318
 30
0.0
 10
66.37607577417128
 20
-95.1827223364438
 30
0.0
 10
67.2197573811972
 20
-94.94223113016743
 30
0.0
 10
67.88122065060037
 20
-94.79730627933003
 30
0.0
 10
68.54268392000387
 20
-94.6523814284923
 30
0.0
 10
69.02192885178528
 20
-94.60302293309323
 30
0.0
 10
69.29212574835282
 20
-95.01146523680973
 30
0.0
 10
69.42325286543672
 20
-95.20968313809327
 30
0.0
 10
69.31596583571405
 20
-95.40396423782836
 30
0.0
 10
69.10699206706431
 20
-95.65518363139849
 30
0.0
 10
68.89801829841265
 20
-95.90640302496988
 30
0.0
 10
68.5873577908339
 20
-96.21456071237758
 30
0.0
 10
68.31173795220408
 20
-96.6405317890086
 30
0.0
 10
68.0361181135749
 20
-97.06650286563865
 30
0.0
 10
67.72997538535235
 20
-97.51117838084913
 30
0.0
 10
67.4316918376022
 20
-97.88677000406332
 30
0.0
 10
67.13340828985206
 20
-98.26236162727783
 30
0.0
 10
66.84298392257432
 20
-98.56886935849637
 30
0.0
 10
66.5988008058338
 20
-98.71850486714067
 30
0.0
 10
65.80984878967686
 20
-99.20197496873232
 30
0.0
 10
64.5014601983254
 20
-99.58845950334677
 30
0.0
 10
62.98266282038689
 20
-99.8962343731215
 30
0.0
 10
61.46386544244837
 20
-100.2040092428978
 30
0.0
 10
59.73465927792185
 20
-100.4330744478351
 30
0.0
 10
58.10407211541511
 20
-100.6017058900743
 30
0.0
 10
56.47348495290836
 20
-100.7703373323131
 30
0.0
 10
54.9415167924214
 20
-100.8785350118523
 30
0.0
 10
53.81719542256039
 20
-100.9445748308325
 30
0.0
 10
52.69287405270035
 20
-101.010614649813
 30
0.0
 10
51.97619947346627
 20
-101.0344966082333
 30
0.0
 10
51.97619947346627
 20
-101.0344966082333
 30
0.0
 10
51.77189955385948
 20
-101.0668554193946
 30
0.0
 10
51.58382745740361
 20
-101.1390864960565
 30
0.0
 10
51.4186604431962
 20
-101.2420000247452
 30
0.0
 10
51.25349342898784
 20
-101.3449135534339
 30
0.0
 10
51.11123149702923
 20
-101.4785095341517
 30
0.0
 10
50.99855190641567
 20
-101.6335981534238
 30
0.0
 10
50.8858723158018
 20
-101.788686772696
 30
0.0
 10
50.80277506653458
 20
-101.9652680305235
 30
0.0
 10
50.75593741771092
 20
-102.1541521134353
 30
0.0
 10
50.70909976888695
 20
-102.3430361963473
 30
0.0
 10
50.69852172050751
 20
-102.544223104342
 30
0.0
 10
50.73088053166917
 20
-102.7485230239485
 30
0.0
 10
50.73088053166917
 20
-102.7485230239485
 30
0.0
 10
50.8618937128491
 20
-103.5757014841135
 30
0.0
 10
50.8618937128491
 20
-103.5757014841135
 30
0.0
 10
50.8618937128491
 20
-103.5757014841135
 30
0.0
 10
50.9929068940287
 20
-104.4028799442774
 30
0.0
 10
50.9929068940287
 20
-104.4028799442774
 30
0.0
 10
50.9929068940287
 20
-104.4028799442774
 30
0.0
 10
51.12392007520862
 20
-105.2300584044427
 30
0.0
 10
51.12392007520862
 20
-105.2300584044427
 30
0.0
 10
51.12392007520862
 20
-105.2300584044427
 30
0.0
 10
51.25493325638918
 20
-106.0572368646071
 30
0.0
 10
51.25493325638918
 20
-106.0572368646071
 30
0.0
 10
51.28729206754988
 20
-106.2615367842142
 30
0.0
 10
51.35952314421144
 20
-106.449608086939
 30
0.0
 10
51.46243667289982
 20
-106.6147739105515
 30
0.0
 10
51.5653502015898
 20
-106.7799397341627
 30
0.0
 10
51.69894618230629
 20
-106.9222000786606
 30
0.0
 10
51.85403480157877
 20
-107.0348780818127
 30
0.0
 10
52.00912342085094
 20
-107.1475560849652
 30
0.0
 10
52.18570467867943
 20
-107.230651746771
 30
0.0
 10
52.37458876159021
 20
-107.2774882049985
 30
0.0
 10
52.56347284450196
 20
-107.3243246632266
 30
0.0
 10
52.76465975249696
 20
-107.334901917876
 30
0.0
 10
52.96895967210376
 20
-107.3025431067143
 30
0.0
 10
52.96895967210376
 20
-107.3025431067143
 30
0.0
 10
53.75939375924916
 20
-107.2107262421512
 30
0.0
 10
54.67677047994063
 20
-107.0821166321973
 30
0.0
 10
55.59414720063114
 20
-106.9535070222433
 30
0.0
 10
56.63846655486707
 20
-106.7881046668977
 30
0.0
 10
57.14623708904685
 20
-106.6409336853313
 30
0.0
 10
57.65400762323947
 20
-106.4937627038115
 30
0.0
 10
58.56021291087433
 20
-106.1029783218848
 30
0.0
 10
59.40853259826077
 20
-105.8616776986284
 30
0.0
 10
60.25685228564754
 20
-105.620377075372
 30
0.0
 10
61.04728637278684
 20
-105.5285602107871
 30
0.0
 10
61.32351450599026
 20
-105.9793242639487
 30
0.0
 10
61.52943252512348
 20
-106.3153524585748
 30
0.0
 10
61.20093659494066
 20
-106.8092946491021
 30
0.0
 10
60.75356121589421
 20
-107.2910947419205
 30
0.0
 10
60.3061858368484
 20
-107.7728948347401
 30
0.0
 10
59.73993100893897
 20
-108.24255282985
 30
0.0
 10
59.47033123261997
 20
-108.5300126336418
 30
0.0
 10
59.20073145632728
 20
-108.8174724374583
 30
0.0
 10
58.73743563798479
 20
-109.4551445298819
 30
0.0
 10
58.34153976371603
 20
-110.0209516713505
 30
0.0
 10
57.94564388944631
 20
-110.5867588128194
 30
0.0
 10
57.61714795925097
 20
-111.0807010033348
 30
0.0
 10
57.61714795925097
 20
-111.0807010033348
 30
0.0
 10
57.49556429819943
 20
-111.248044823851
 30
0.0
 10
57.41365129506238
 20
-111.4321069930605
 30
0.0
 10
57.36963158848127
 20
-111.6216681282174
 30
0.0
 10
57.32561188189952
 20
-111.8112292633736
 30
0.0
 10
57.31948547187307
 20
-112.006289364477
 30
0.0
 10
57.34947499704275
 20
-112.1956290487817
 30
0.0
 10
57.37946452221243
 20
-112.3849687330867
 30
0.0
 10
57.44556998257823
 20
-112.5685880005933
 30
0.0
 10
57.54601401678099
 20
-112.7352674685555
 30
0.0
 10
57.64645805098374
 20
-112.9019469365181
 30
0.0
 10
57.7812406590228
 20
-113.0516866049364
 30
0.0
 10
57.94858447953931
 20
-113.1732670910645
 30
0.0
 10
57.94858447953931
 20
-113.1732670910645
 30
0.0
 10
59.32074792913986
 20
-114.1702054878465
 30
0.0
 10
59.32074792913986
 20
-114.1702054878465
 30
0.0
 10
59.32074792913986
 20
-114.1702054878465
 30
0.0
 10
60.69291137874074
 20
-115.1671438846289
 30
0.0
 10
60.69291137874074
 20
-115.1671438846289
 30
0.0
 10
60.69291137874074
 20
-115.1671438846289
 30
0.0
 10
62.0650748283413
 20
-116.1640822814105
 30
0.0
 10
62.0650748283413
 20
-116.1640822814105
 30
0.0
 10
62.0650748283413
 20
-116.1640822814105
 30
0.0
 10
63.43723827794184
 20
-117.1610206781925
 30
0.0
 10
63.43723827794184
 20
-117.1610206781925
 30
0.0
 10
63.60457892353557
 20
-117.282601164321
 30
0.0
 10
63.78863950528361
 20
-117.3645125799963
 30
0.0
 10
63.97820024357531
 20
-117.4085316912796
 30
0.0
 10
64.16776098186637
 20
-117.4525508025636
 30
0.0
 10
64.36282187670011
 20
-117.4586776094549
 30
0.0
 10
64.55216314846683
 20
-117.4286888780162
 30
0.0
 10
64.7415044202326
 20
-117.3987001465773
 30
0.0
 10
64.92512606893105
 20
-117.332595876807
 30
0.0
 10
65.09180831495084
 20
-117.2321528347679
 30
0.0
 10
65.25849056097
 20
-117.1317097927287
 30
0.0
 10
65.40823340431116
 20
-116.9969279784204
 30
0.0
 10
65.52981706536269
 20
-116.8295841579032
 30
0.0
 10
65.52981706536269
 20
-116.8295841579032
 30
0.0
 10
65.89807310970743
 20
-116.3645293760409
 30
0.0
 10
66.31384904105087
 20
-115.8131659388988
 30
0.0
 10
66.72962497239433
 20
-115.261802501756
 30
0.0
 10
67.19292079073713
 20
-114.6241304093327
 30
0.0
 10
67.38300033873202
 20
-114.2788957882108
 30
0.0
 10
67.57307988675834
 20
-113.9336611671062
 30
0.0
 10
67.84476874960357
 20
-113.2499883230359
 30
0.0
 10
68.16474120319134
 20
-112.6756245100658
 30
0.0
 10
68.4847136567788
 20
-112.1012606970947
 30
0.0
 10
68.85296970110845
 20
-111.6362059152241
 30
0.0
 10
69.23618361210198
 20
-111.7282074185174
 30
0.0
 10
69.75024492920322
 20
-111.8516225988727
 30
0.0
 10
69.90717836110794
 20
-112.6317434736172
 30
0.0
 10
69.93983171918867
 20
-113.513109793019
 30
0.0
 10
69.97248507726876
 20
-114.3944761124202
 30
0.0
 10
69.88085836152518
 20
-115.3770878764784
 30
0.0
 10
69.89779938332954
 20
-115.9054848354615
 30
0.0
 10
69.91474040518106
 20
-116.4338817944424
 30
0.0
 10
70.08014434798747
 20
-117.478201148678
 30
0.0
 10
70.24131303533211
 20
-118.3904212631684
 30
0.0
 10
70.4024817226758
 20
-119.3026413776591
 30
0.0
 10
70.55941515455677
 20
-120.0827622524043
 30
0.0
 10
70.55941515455677
 20
-120.0827622524043
 30
0.0
 10
70.5917707907963
 20
-120.2870589970883
 30
0.0
 10
70.66400027999615
 20
-120.4751287123524
 30
0.0
 10
70.76691321338738
 20
-120.6402939406658
 30
0.0
 10
70.86982614677797
 20
-120.8054591689801
 30
0.0
 10
71.00342252436029
 20
-120.9477199103432
 30
0.0
 10
71.15851193736347
 20
-121.0603987072257
 30
0.0
 10
71.31360135036665
 20
-121.1730775041089
 30
0.0
 10
71.49018379879071
 20
-121.2561743565113
 30
0.0
 10
71.67906887386543
 20
-121.3030118069023
 30
0.0
 10
71.86795394894014
 20
-121.3498492572931
 30
0.0
 10
72.06914165066584
 20
-121.3604273056728
 30
0.0
 10
72.27344157027264
 20
-121.3280684945115
 30
0.0
 10
72.27344157027264
 20
-121.3280684945115
 30
0.0
 10
73.10062003043664
 20
-121.1970584882534
 30
0.0
 10
73.10062003043664
 20
-121.1970584882534
 30
0.0
 10
73.10062003043664
 20
-121.1970584882534
 30
0.0
 10
73.9277984906016
 20
-121.0660484819966
 30
0.0
 10
73.9277984906016
 20
-121.0660484819966
 30
0.0
 10
73.9277984906016
 20
-121.0660484819966
 30
0.0
 10
74.75497695076689
 20
-120.9350384757394
 30
0.0
 10
74.75497695076689
 20
-120.9350384757394
 30
0.0
 10
74.75497695076689
 20
-120.9350384757394
 30
0.0
 10
75.5821554109309
 20
-120.8040284694823
 30
0.0
 10
75.5821554109309
 20
-120.8040284694823
 30
0.0
 10
75.78645533053769
 20
-120.7716696583206
 30
0.0
 10
75.97452663326254
 20
-120.6994385816594
 30
0.0
 10
76.1396924568747
 20
-120.5965250529701
 30
0.0
 10
76.30485828048621
 20
-120.4936115242807
 30
0.0
 10
76.4471186249844
 20
-120.3600155435639
 30
0.0
 10
76.55979662813688
 20
-120.2049269242918
 30
0.0
 10
76.67247463128872
 20
-120.0498383050199
 30
0.0
 10
76.75557029309519
 20
-119.8732570471914
 30
0.0
 10
76.80240675132328
 20
-119.68437296428
 30
0.0
 10
76.84924320955041
 20
-119.4954888813689
 30
0.0
 10
76.8598204641998
 20
-119.2943019733732
 30
0.0
 10
76.82746165303813
 20
-119.0900020537674
 30
0.0
 10
76.82746165303813
 20
-119.0900020537674
 30
0.0
 10
76.62870997325822
 20
-118.4010234282796
 30
0.0
 10
76.34408300257836
 20
-117.3113218021685
 30
0.0
 10
76.05945603189913
 20
-116.2216201760591
 30
0.0
 10
75.68895377031996
 20
-114.7311955493253
 30
0.0
 10
75.34545260672141
 20
-113.1283035468339
 30
0.0
 10
75.00195144312352
 20
-111.5254115443427
 30
0.0
 10
74.68545137750594
 20
-109.8100521660938
 30
0.0
 10
74.50882879875024
 20
-108.2704810369516
 30
0.0
 10
74.33220621999358
 20
-106.730909907809
 30
0.0
 10
74.29546112809848
 20
-105.3671270277736
 30
0.0
 10
74.51146991194521
 20
-104.4673880217097
 30
0.0
 10
74.5700177090213
 20
-104.2235195280789
 30
0.0
 10
74.74670723263272
 20
-103.8986855025247
 30
0.0
 10
74.97880838219524
 20
-103.5486104918603
 30
0.0
 10
75.2109095317568
 20
-103.1985354811966
 30
0.0
 10
75.49842230726948
 20
-102.8232194854224
 30
0.0
 10
75.77861660814743
 20
-102.478387051352
 30
0.0
 10
76.05881090902507
 20
-102.1335546172819
 30
0.0
 10
76.23139852641066
 20
-101.7914199203693
 30
0.0
 10
76.384081673006
 20
-101.5493862442476
 30
0.0
 10
76.536764819601
 20
-101.3073525681259
 30
0.0
 10
76.66954349540542
 20
-101.1654199127945
 30
0.0
 10
76.87011991312107
 20
-101.2209915618863
 30
0.0
 10
77.27335771920298
 20
-101.3327125214466
 30
0.0
 10
77.35978309823128
 20
-101.735176871406
 30
0.0
 10
77.41666235059188
 20
-102.3109431442855
 30
0.0
 10
77.47354160295184
 20
-102.886709417166
 30
0.0
 10
77.50087472864347
 20
-103.6357776129667
 30
0.0
 10
77.78592802805014
 20
-104.4407062642104
 30
0.0
 10
78.0709813274565
 20
-105.2456349154534
 30
0.0
 10
78.41213589753741
 20
-106.0505635423591
 30
0.0
 10
78.79422968411569
 20
-106.6542599577796
 30
0.0
 10
79.17632347069366
 20
-107.2579563732001
 30
0.0
 10
79.59935647376837
 20
-107.6604205771345
 30
0.0
 10
80.0481666391639
 20
-107.6604203824344
 30
0.0
 10
80.4970385716932
 20
-107.6604201877486
 30
0.0
 10
80.92012944517815
 20
-107.257900227975
 30
0.0
 10
81.30227529335714
 20
-106.6541203978268
 30
0.0
 10
81.68442114153582
 20
-106.050340567679
 30
0.0
 10
82.02562196440886
 20
-105.2453008671551
 30
0.0
 10
82.31071379571625
 20
-104.4402611909669
 30
0.0
 10
82.59580562702365
 20
-103.6352215147791
 30
0.0
 10
82.62314184626037
 20
-102.8860501393554
 30
0.0
 10
82.68002841792203
 20
-102.3102045447643
 30
0.0
 10
82.73691498958466
 20
-101.7343589501738
 30
0.0
 10
82.82335191367095
 20
-101.3318391364161
 30
0.0
 10
83.2266451546804
 20
-101.2201025835583
 30
0.0
 10
83.42725608830642
 20
-101.1645212548825
 30
0.0
 10
83.56005766656678
 20
-101.3064783311511
 30
0.0
 10
83.71276716209856
 20
-101.5485536843767
 30
0.0
 10
83.86547665763129
 20
-101.7906290376029
 30
0.0
 10
84.03809407043514
 20
-102.132822667786
 30
0.0
 10
84.31833667314939
 20
-102.4777144469417
 30
0.0
 10
84.5985792758643
 20
-102.8226062260975
 30
0.0
 10
84.88614160167532
 20
-103.1979868185626
 30
0.0
 10
85.11828272300278
 20
-103.5481220928589
 30
0.0
 10
85.35042384432958
 20
-103.8982573671546
 30
0.0
 10
85.52714376117217
 20
-104.2231473232811
 30
0.0
 10
85.5857015459492
 20
-104.4670578297591
 30
0.0
 10
85.80171001463829
 20
-105.3667970391809
 30
0.0
 10
85.76496397143367
 20
-106.7305800208952
 30
0.0
 10
85.58834014298962
 20
-108.2701511881675
 30
0.0
 10
85.41171631454526
 20
-109.8097223554395
 30
0.0
 10
85.09521470086148
 20
-111.5250817082685
 30
0.0
 10
84.75171202859096
 20
-113.1279736599204
 30
0.0
 10
84.40820935632108
 20
-114.730865611572
 30
0.0
 10
84.03770562546511
 20
-116.2212901620465
 30
0.0
 10
83.75307756267573
 20
-117.3109917246069
 30
0.0
 10
83.4684494998873
 20
-118.400693287168
 30
0.0
 10
83.26969710516579
 20
-119.0896718618162
 30
0.0
 10
83.26969710516579
 20
-119.0896718618162
 30
0.0
 10
83.2373414689269
 20
-119.293971781423
 30
0.0
 10
83.24792110476807
 20
-119.495158689418
 30
0.0
 10
83.2947593488895
 20
-119.6840427723291
 30
0.0
 10
83.34159759301126
 20
-119.8729268552412
 30
0.0
 10
83.42469444541328
 20
-120.049508113069
 30
0.0
 10
83.53737324229678
 20
-120.2045967323412
 30
0.0
 10
83.650052039179
 20
-120.3596853516137
 30
0.0
 10
83.79231278054301
 20
-120.4932813323301
 30
0.0
 10
83.95747880258712
 20
-120.5961948610192
 30
0.0
 10
84.12264482463124
 20
-120.6991083897082
 30
0.0
 10
84.31071612735641
 20
-120.7713394663701
 30
0.0
 10
84.51501604696321
 20
-120.8036982775314
 30
0.0
 10
84.51501604696321
 20
-120.8036982775314
 30
0.0
 10
85.34219450712786
 20
-120.9347082837889
 30
0.0
 10
85.34219450712786
 20
-120.9347082837889
 30
0.0
 10
85.34219450712786
 20
-120.9347082837889
 30
0.0
 10
86.16937296729249
 20
-121.0657182900463
 30
0.0
 10
86.16937296729249
 20
-121.0657182900463
 30
0.0
 10
86.16937296729249
 20
-121.0657182900463
 30
0.0
 10
86.99655142745746
 20
-121.1967282963031
 30
0.0
 10
86.99655142745746
 20
-121.1967282963031
 30
0.0
 10
86.99655142745746
 20
-121.1967282963031
 30
0.0
 10
87.82372988762211
 20
-121.3277383025603
 30
0.0
 10
87.82372988762211
 20
-121.3277383025603
 30
0.0
 10
88.02802980722858
 20
-121.3600971137219
 30
0.0
 10
88.22921671522359
 20
-121.3495190653428
 30
0.0
 10
88.41810079813469
 20
-121.3026814165188
 30
0.0
 10
88.60698488104643
 20
-121.2558437676952
 30
0.0
 10
88.78356613887428
 20
-121.1727465184273
 30
0.0
 10
88.93865475814741
 20
-121.0600669278141
 30
0.0
 10
89.09374337741957
 20
-120.9473873372005
 30
0.0
 10
89.22733935813606
 20
-120.8051254052419
 30
0.0
 10
89.3302528868254
 20
-120.6399583910329
 30
0.0
 10
89.43316641551411
 20
-120.4747913768255
 30
0.0
 10
89.50539749217566
 20
-120.2867192803696
 30
0.0
 10
89.537756303337
 20
-120.0824193607628
 30
0.0
 10
89.537756303337
 20
-120.0824193607628
 30
0.0
 10
89.69468968516031
 20
-119.3022996796937
 30
0.0
 10
89.85585834747485
 20
-118.3900809557725
 30
0.0
 10
90.01702700979035
 20
-117.4778622318494
 30
0.0
 10
90.18243095259709
 20
-116.4335444650752
 30
0.0
 10
90.19937207456488
 20
-115.9051482936653
 30
0.0
 10
90.21631319658049
 20
-115.3767521222571
 30
0.0
 10
90.12468685474404
 20
-114.3941418239932
 30
0.0
 10
90.15734037472576
 20
-113.5127768343266
 30
0.0
 10
90.18999389470812
 20
-112.6314118446596
 30
0.0
 10
90.34692727650705
 20
-111.8512921635888
 30
0.0
 10
90.86098784579244
 20
-111.7278772265672
 30
0.0
 10
91.24420176759861
 20
-111.6358757683098
 30
0.0
 10
91.61245781155704
 20
-112.1009305503849
 30
0.0
 10
91.93243026225588
 20
-112.6752943521978
 30
0.0
 10
92.25240271295503
 20
-113.249658154011
 30
0.0
 10
92.52409157039492
 20
-113.9333309755631
 30
0.0
 10
92.71417111916273
 20
-114.2785655962599
 30
0.0
 10
92.90425066796037
 20
-114.6238002169394
 30
0.0
 10
93.36754648630286
 20
-115.2614723093627
 30
0.0
 10
93.78332241744577
 20
-115.8128357466158
 30
0.0
 10
94.19909834858902
 20
-116.3641991838699
 30
0.0
 10
94.56735439253205
 20
-116.8292539659526
 30
0.0
 10
94.56735439253205
 20
-116.8292539659526
 30
0.0
 10
94.68893805358326
 20
-116.9965977864692
 30
0.0
 10
94.83868010319372
 20
-117.1313796007782
 30
0.0
 10
95.0053613570499
 20
-117.2318224443847
 30
0.0
 10
95.17204261090578
 20
-117.3322652879913
 30
0.0
 10
95.35566306900833
 20
-117.398369160896
 30
0.0
 10
95.54500354704437
 20
-117.4283570986046
 30
0.0
 10
95.73434402507976
 20
-117.4583450363126
 30
0.0
 10
95.92940452304799
 20
-117.452217038825
 30
0.0
 10
96.11896585663747
 20
-117.4081961416474
 30
0.0
 10
96.30852719022695
 20
-117.3641752444701
 30
0.0
 10
96.49258935943607
 20
-117.2822614476027
 30
0.0
 10
96.6599331799529
 20
-117.1606777865521
 30
0.0
 10
96.6599331799529
 20
-117.1606777865521
 30
0.0
 10
98.03209662955345
 20
-116.1637425646919
 30
0.0
 10
98.03209662955345
 20
-116.1637425646919
 30
0.0
 10
98.03209662955345
 20
-116.1637425646919
 30
0.0
 10
99.40426007915369
 20
-115.166807342833
 30
0.0
 10
99.40426007915369
 20
-115.166807342833
 30
0.0
 10
99.40426007915369
 20
-115.166807342833
 30
0.0
 10
100.7764235287546
 20
-114.1698721209735
 30
0.0
 10
100.7764235287546
 20
-114.1698721209735
 30
0.0
 10
100.7764235287546
 20
-114.1698721209735
 30
0.0
 10
102.1485869783548
 20
-113.1729368991143
 30
0.0
 10
102.1485869783548
 20
-113.1729368991143
 30
0.0
 10
102.3159276239488
 20
-113.0513564129852
 30
0.0
 10
102.4507078507961
 20
-112.9016167445672
 30
0.0
 10
102.5511502975378
 20
-112.7349372766053
 30
0.0
 10
102.6515927442788
 20
-112.5682578086431
 30
0.0
 10
102.7176974109143
 20
-112.3846385411361
 30
0.0
 10
102.747686936084
 20
-112.1952988568314
 30
0.0
 10
102.7776764612536
 20
-112.0059591725264
 30
0.0
 10
102.7715508449582
 20
-111.8108990714227
 30
0.0
 10
102.7275327258378
 20
-111.6213379362665
 30
0.0
 10
102.6835146067172
 20
-111.4317768011099
 30
0.0
 10
102.6016039847725
 20
-111.2477146319011
 30
0.0
 10
102.4800234986431
 20
-111.0803708113839
 30
0.0
 10
102.4800234986431
 20
-111.0803708113839
 30
0.0
 10
102.1515264268954
 20
-110.5864273751978
 30
0.0
 10
101.7556291881197
 20
-110.0206188171622
 30
0.0
 10
101.359731949344
 20
-109.454810259127
 30
0.0
 10
100.8964345435401
 20
-108.8171365792423
 30
0.0
 10
100.6268338754295
 20
-108.5296760918456
 30
0.0
 10
100.3572332073439
 20
-108.2422156044255
 30
0.0
 10
99.79097641520241
 20
-107.7725564411163
 30
0.0
 10
99.34359948325103
 20
-107.2907551413747
 30
0.0
 10
98.89622255129996
 20
-106.8089538416338
 30
0.0
 10
98.56772547953935
 20
-106.3150104054592
 30
0.0
 10
98.77364425221366
 20
-105.9789813723083
 30
0.0
 10
99.04987268412926
 20
-105.5282173565712
 30
0.0
 10
99.84030682211647
 20
-105.6200354101677
 30
0.0
 10
100.6886264602496
 20
-105.8613374123034
 30
0.0
 10
101.5369460983815
 20
-106.1026394144391
 30
0.0
 10
102.4431512366596
 20
-106.4934253651144
 30
0.0
 10
102.9509216691571
 20
-106.6405971435358
 30
0.0
 10
103.4586921016667
 20
-106.7877689219121
 30
0.0
 10
104.5030114559033
 20
-106.9531728647185
 30
0.0
 10
105.4203882020115
 20
-107.0817838629311
 30
0.0
 10
106.3377649481197
 20
-107.2103948611441
 30
0.0
 10
107.1281990861005
 20
-107.3022129147637
 30
0.0
 10
107.1281990861005
 20
-107.3022129147637
 30
0.0
 10
107.3324990057069
 20
-107.3345717259257
 30
0.0
 10
107.5336859137016
 20
-107.323994471276
 30
0.0
 10
107.7225699966137
 20
-107.2771580130485
 30
0.0
 10
107.9114540795242
 20
-107.2303215548205
 30
0.0
 10
108.088035337353
 20
-107.1472258930143
 30
0.0
 10
108.2431239566251
 20
-107.0345478898622
 30
0.0
 10
108.3982125758973
 20
-106.92186988671
 30
0.0
 10
108.5318085566148
 20
-106.7796095422118
 30
0.0
 10
108.6347220853035
 20
-106.6144437186003
 30
0.0
 10
108.7376356139928
 20
-106.4492778949885
 30
0.0
 10
108.8098666906534
 20
-106.2612065922633
 30
0.0
 10
108.8422255018154
 20
-106.0569066726565
 30
0.0
 10
108.8422255018154
 20
-106.0569066726565
 30
0.0
 10
108.9732386829953
 20
-105.2297282124922
 30
0.0
 10
108.9732386829953
 20
-105.2297282124922
 30
0.0
 10
108.9732386829953
 20
-105.2297282124922
 30
0.0
 10
109.1042518641752
 20
-104.4025497523272
 30
0.0
 10
109.1042518641752
 20
-104.4025497523272
 30
0.0
 10
109.1042518641752
 20
-104.4025497523272
 30
0.0
 10
109.2352650453551
 20
-103.5753712921629
 30
0.0
 10
109.2352650453551
 20
-103.5753712921629
 30
0.0
 10
109.2352650453551
 20
-103.5753712921629
 30
0.0
 10
109.3662782265351
 20
-102.7481928319982
 30
0.0
 10
109.3662782265351
 20
-102.7481928319982
 30
0.0
 10
109.3986370376964
 20
-102.5438929123914
 30
0.0
 10
109.3880597830477
 20
-102.3427060043964
 30
0.0
 10
109.3412233248193
 20
-102.1538219214847
 30
0.0
 10
109.2943868665915
 20
-101.9649378385729
 30
0.0
 10
109.211291204786
 20
-101.7883565807454
 30
0.0
 10
109.0986132016332
 20
-101.6332679614736
 30
0.0
 10
108.9859351984817
 20
-101.4781793422011
 30
0.0
 10
108.8436748539835
 20
-101.3445833614836
 30
0.0
 10
108.6785090303716
 20
-101.2416698327949
 30
0.0
 10
108.5133432067598
 20
-101.1387563041059
 30
0.0
 10
108.3252719040349
 20
-101.0665252274444
 30
0.0
 10
108.1209719844285
 20
-101.0341664162827
 30
0.0
 10
108.1209719844285
 20
-101.0341664162827
 30
0.0
 10
107.4042966744346
 20
-101.010284730204
 30
0.0
 10
106.2799741926914
 20
-100.9442452516516
 30
0.0
 10
105.1556517109479
 20
-100.8782057730988
 30
0.0
 10
103.6236820574554
 20
-100.7700085020723
 30
0.0
 10
101.9930933704578
 20
-100.6013773321753
 30
0.0
 10
100.3625046834599
 20
-100.4327461622787
 30
0.0
 10
98.63329696295855
 20
-100.2036810935116
 30
0.0
 10
97.11449834719511
 20
-99.89590601947954
 30
0.0
 10
95.5956997314323
 20
-99.58813094544719
 30
0.0
 10
94.28731022040965
 20
-99.20164586614928
 30
0.0
 10
93.49835795237108
 20
-98.71817467518977
 30
0.0
 10
93.25418700552407
 20
-98.56854633482588
 30
0.0
 10
92.96377745423044
 20
-98.26205329997745
 30
0.0
 10
92.66550928489082
 20
-97.88647968915872
 30
0.0
 10
92.36724111555216
 20
-97.51090607834062
 30
0.0
 10
92.06111432816752
 20
-97.0662518915529
 30
0.0
 10
91.7855089091382
 20
-96.64030124731072
 30
0.0
 10
91.5099034901092
 20
-96.21435060306919
 30
0.0
 10
91.19925892831813
 20
-95.90620745684502
 30
0.0
 10
90.99029597684364
 20
-95.65499999394527
 30
0.0
 10
90.78133302536851
 20
-95.40379253104584
 30
0.0
 10
90.674051684209
 20
-95.20952075146984
 30
0.0
 10
90.80517270644634
 20
-95.01131284052494
 30
0.0
 10
91.07533896587226
 20
-94.60291845063051
 30
0.0
 10
91.55452820243312
 20
-94.65227192241679
 30
0.0
 10
92.21591443121397
 20
-94.7971808964742
 30
0.0
 10
92.8773006599945
 20
-94.9420898705329
 30
0.0
 10
93.72088388099601
 20
-95.18255434686306
 30
0.0
 10
94.71983810930199
 20
-95.15638196605735
 30
0.0
 10
95.71879233760764
 20
-95.13020958525132
 30
0.0
 10
96.73803444350641
 20
-95.04159754225712
 30
0.0
 10
97.54811374751166
 20
-94.83464927008562
 30
0.0
 10
98.3581930515179
 20
-94.6277009979141
 30
0.0
 10
98.95910955363192
 20
-94.30241649656689
 30
0.0
 10
99.12141257436937
 20
-93.80289919905579
 30
0.0
 10
99.25280476537834
 20
-93.39851564630976
 30
0.0
 10
99.01402498960094
 20
-92.89953369254462
 30
0.0
 10
98.58194721849225
 20
-92.3785265103161
 30
0.0
 10
98.14986944738355
 20
-91.85751932808694
 30
0.0
 10
97.52449368094423
 20
-91.31448691739503
 30
0.0
 10
96.88269389062874
 20
-90.82200245079609
 30
0.0
 10
96.24089410031198
 20
-90.32951798419748
 30
0.0
 10
95.57397588784674
 20
-90.08559613894401
 30
0.0
 10
95.0718548220971
 20
-89.8657880717141
 30
0.0
 10
94.56973375634713
 20
-89.6459800044842
 30
0.0
 10
94.23240983731274
 20
-89.45028571527786
 30
0.0
 10
94.24979863385927
 20
-89.05425636077449
 30
0.0
 10
94.25618608660095
 20
-88.90878230373617
 30
0.0
 10
94.3793315946851
 20
-88.85111928879998
 30
0.0
 10
94.57338569489652
 20
-88.80185370233889
 30
0.0
 10
94.76743979510857
 20
-88.75258811587908
 30
0.0
 10
95.03240248744758
 20
-88.71171995789435
 30
0.0
 10
95.3224243086958
 20
-88.59983561475765
 30
0.0
 10
95.61244612994498
 20
-88.4879512716216
 30
0.0
 10
95.92433335373188
 20
-88.37778777185306
 30
0.0
 10
96.2074459272868
 20
-88.2990370446039
 30
0.0
 10
96.49055850084173
 20
-88.22028631735473
 30
0.0
 10
96.74489642416341
 20
-88.1729483626259
 30
0.0
 10
96.91981964447862
 20
-88.18671510956828
 30
0.0
 10
97.84227289282335
 20
-88.25931370682004
 30
0.0
 10
99.12795309983679
 20
-88.71569257105746
 30
0.0
 10
100.5375934581635
 20
-89.35942415646045
 30
0.0
 10
101.9472338164902
 20
-90.00315574186278
 30
0.0
 10
103.4808343261296
 20
-90.83424004843005
 30
0.0
 10
104.8991281797265
 20
-91.65624953034052
 30
0.0
 10
106.3174220333231
 20
-92.47825901225228
 30
0.0
 10
107.620409230877
 20
-93.29119366950627
 30
0.0
 10
108.5688229650307
 20
-93.89862595628307
 30
0.0
 10
109.5172366991854
 20
-94.50605824305985
 30
0.0
 10
110.1110769699403
 20
-94.90798815935878
 30
0.0
 10
110.1110769699403
 20
-94.90798815935878
 30
0.0
 10
110.2953780520753
 20
-95.00189602008737
 30
0.0
 10
110.4899865204382
 20
-95.0540068184873
 30
0.0
 10
110.6840991055782
 20
-95.06783102679529
 30
0.0
 10
110.8782116907168
 20
-95.08165523510296
 30
0.0
 10
111.0718283926338
 20
-95.0571928533187
 30
0.0
 10
111.2541459418716
 20
-94.99795435367604
 30
0.0
 10
111.4364634911121
 20
-94.9387158540337
 30
0.0
 10
111.6074818876754
 20
-94.8447012365333
 30
0.0
 10
111.756397862112
 20
-94.71942097340964
 30
0.0
 10
111.9053138365473
 20
-94.59414071028566
 30
0.0
 10
112.0321273888552
 20
-94.43759480153906
 30
0.0
 10
112.1260352495828
 20
-94.2532937194034
 30
0.0
 10
112.1260352495828
 20
-94.2532937194034
 30
0.0
 10
112.5062449308869
 20
-93.50708213544021
 30
0.0
 10
112.5062449308869
 20
-93.50708213544021
 30
0.0
 10
112.5062449308869
 20
-93.50708213544021
 30
0.0
 10
112.8864546121903
 20
-92.76087055147703
 30
0.0
 10
112.8864546121903
 20
-92.76087055147703
 30
0.0
 10
112.8864546121903
 20
-92.76087055147703
 30
0.0
 10
113.266664293495
 20
-92.01465896751353
 30
0.0
 10
113.266664293495
 20
-92.01465896751353
 30
0.0
 10
113.266664293495
 20
-92.01465896751353
 30
0.0
 10
113.6468739747991
 20
-91.26844738355035
 30
0.0
 10
113.6468739747991
 20
-91.26844738355035
 30
0.0
 10
113.7407786606046
 20
-91.08414630141533
 30
0.0
 10
113.7928878715434
 20
-90.88953783305175
 30
0.0
 10
113.806711286121
 20
-90.69542524791277
 30
0.0
 10
113.820534700698
 20
-90.5013126627738
 30
0.0
 10
113.7960723189131
 20
-90.3076959608575
 30
0.0
 10
113.7368338192711
 20
-90.12537841161866
 30
0.0
 10
113.6775953196284
 20
-89.94306086237852
 30
0.0
 10
113.5835807021267
 20
-89.77204246581519
 30
0.0
 10
113.4582996452733
 20
-89.62312649137958
 30
0.0
 10
113.3330185884199
 20
-89.47421051694366
 30
0.0
 10
113.176471092211
 20
-89.34739696463642
 30
0.0
 10
112.9921668351538
 20
-89.25348910390814
 30
0.0
  0
ENDSEC
  0
SECTION
  2
OBJECTS
  0
DICTIONARY
  5
C
330
0
100
AcDbDictionary
  3
ACAD_GROUP
350
D
  3
ACAD_LAYOUT
350
1A
  3
ACAD_MATERIAL
350
3B
  3
ACAD_MLEADERSTYLE
350
44
  3
ACAD_MLINESTYLE
350
17
  3
ACAD_PLOTSETTINGS
350
19
  3
ACAD_VISUALSTYLE
350
2A
  3
ACDBVARIABLEDICTIONARY
350
42
1001
ACAD
1000
TREAT_AS_HARD
1070
     0
  0
DICTIONARY
  5
D
102
{ACAD_REACTORS
330
C
102
}
330
C
100
AcDbDictionary
1001
ACAD
1000
TREAT_AS_HARD
1070
     0
  0
DICTIONARY
  5
1A
102
{ACAD_REACTORS
330
C
102
}
330
C
100
AcDbDictionary
1001
ACAD
1000
TREAT_AS_HARD
1070
     0
  0
DICTIONARY
  5
3B
102
{ACAD_REACTORS
330
C
102
}
330
C
100
AcDbDictionary
  3
BYBLOCK
350
3D
  3
BYLAYER
350
3C
  3
GLOBAL
350
3E
1001
ACAD
1000
TREAT_AS_HARD
1070
     0
  0
DICTIONARY
  5
44
102
{ACAD_REACTORS
330
C
102
}
330
C
100
AcDbDictionary
1001
ACAD
1000
TREAT_AS_HARD
1070
     0
  0
DICTIONARY
  5
17
102
{ACAD_REACTORS
330
C
102
}
330
C
100
AcDbDictionary
  3
STANDARD
350
18
1001
ACAD
1000
TREAT_AS_HARD
1070
     0
  0
DICTIONARY
  5
19
102
{ACAD_REACTORS
330
C
102
}
330
C
100
AcDbDictionary
1001
ACAD
1000
TREAT_AS_HARD
1070
     0
  0
DICTIONARY
  5
2A
102
{ACAD_REACTORS
330
C
102
}
330
C
100
AcDbDictionary
  3
2DWIREFRAME
350
2F
  3
3DWIREFRAME
350
30
  3
3D_HIDDEN
350
31
  3
BASIC
350
32
  3
BRIGHTEN
350
36
  3
COLORCHANGE
350
3A
  3
CONCEPTUAL
350
34
  3
DIM
350
35
  3
FACEPATTERN
350
39
  3
FLAT
350
2B
  3
FLATWITHEDGES
350
2C
  3
GOURAUD
350
2D
  3
GOURAUDWITHEDGES
350
2E
  3
LINEPATTERN
350
38
  3
REALISTIC
350
33
  3
THICKEN
350
37
1001
ACAD
1000
TREAT_AS_HARD
1070
     0
  0
DICTIONARY
  5
42
102
{ACAD_REACTORS
330
C
102
}
330
C
100
AcDbDictionary
  3
DIMASSOC
350
45
  3
HIDETEXT
350
46
1001
ACAD
1000
TREAT_AS_HARD
1070
     0
  0
MATERIAL
  5
3D
102
{ACAD_REACTORS
330
3B
102
}
102
{ACAD_XDICTIONARY
360
49
102
}
330
3B
100
AcDbMaterial
  1
ByBlock
  0
MATERIAL
  5
3C
102
{ACAD_REACTORS
330
3B
102
}
102
{ACAD_XDICTIONARY
360
47
102
}
330
3B
100
AcDbMaterial
  1
ByLayer
  0
MATERIAL
  5
3E
102
{ACAD_REACTORS
330
3B
102
}
102
{ACAD_XDICTIONARY
360
4B
102
}
330
3B
100
AcDbMaterial
  1
Global
  0
MLINESTYLE
  5
18
102
{ACAD_REACTORS
330
17
102
}
330
17
100
AcDbMlineStyle
  2
Standard
 70
     0
  3

 62
   256
 51
90.0
 52
90.0
 71
     2
 49
0.5
 62
   256
  6
BYLAYER
 49
-0.5
 62
   256
  6
BYLAYER
  0
ACAD_PROXY_OBJECT
  5
2F
102
{ACAD_REACTORS
330
2A
102
}
330
2A
100
AcDbZombieObject
 90
      499
 91
      501
 93
      436
310
42CC9915DA5C99599C985B595049028333333333333E3BF0000000000000FB0107901411070040501600405405064090741402480A0340
1001
ACAD
1000
AcDbSavedByObjectVersion
1070
     0
  0
ACAD_PROXY_OBJECT
  5
30
102
{ACAD_REACTORS
330
2A
102
}
330
2A
100
AcDbZombieObject
 90
      499
 91
      501
 93
      436
310
42CCD915DA5C99599C985B595059028333333333333E3BF0000000000000FB0107901411070040501600405405064090741402480A0340
1001
ACAD
1000
AcDbSavedByObjectVersion
1070
     0
  0
ACAD_PROXY_OBJECT
  5
31
102
{ACAD_REACTORS
330
2A
102
}
330
2A
100
AcDbZombieObject
 90
      499
 91
      501
 93
      500
310
424CD108121A5919195B90640502408333333333333E3BF0000000000000FB01079024090700405020000000000001110200405405064090740C02480A0340
1001
ACAD
1000
AcDbSavedByObjectVersion
1070
     0
  0
ACAD_PROXY_OBJECT
  5
32
102
{ACAD_REACTORS
330
2A
102
}
330
2A
100
AcDbZombieObject
 90
      499
 91
      501
 93
      388
310
4150985CDA58D07406404333333333333E3BF0000000000000FB0107A41107004050150841D405064090741402480A0350
1001
ACAD
1000
AcDbSavedByObjectVersion
1070
     0
  0
ACAD_PROXY_OBJECT
  5
36
102
{ACAD_REACTORS
330
2A
102
}
330
2A
100
AcDbZombieObject
 90
      499
 91
      501
 93
      428
310
42109C9A59DA1D195B90C409028333333333333E3BF0000000000000FB010790141107004050150841D405064090741402480A029950
1001
ACAD
1000
AcDbSavedByObjectVersion
1070
     0
  0
ACAD_PROXY_OBJECT
  5
3A
102
{ACAD_REACTORS
330
2A
102
}
330
2A
100
AcDbZombieObject
 90
      499
 91
      501
 93
      452
310
42D0DBDB1BDC90DA185B99D95104090240C333333333333E3BF0000000000000FB0108901411070040501508421405064090741402480A0350
1001
ACAD
1000
AcDbSavedByObjectVersion
1070
     0
  0
ACAD_PROXY_OBJECT
  5
34
102
{ACAD_REACTORS
330
2A
102
}
330
2A
100
AcDbZombieObject
 90
      499
 91
      501
 93
      500
310
4290DBDB98D95C1D1D585B10940D028333333333333E3BF0000000000000FB0107902409070040501000000000000111010841D405064090740C02480A0340
1001
ACAD
1000
AcDbSavedByObjectVersion
1070
     0
  0
ACAD_PROXY_OBJECT
  5
35
102
{ACAD_REACTORS
330
2A
102
}
330
2A
100
AcDbZombieObject
 90
      499
 91
      501
 93
      412
310
40D11A5B50B409028333333333333E3BF0000000000000FB010790141107004050150841D405064090741402480A02677FFFFFD0
1001
ACAD
1000
AcDbSavedByObjectVersion
1070
     0
  0
ACAD_PROXY_OBJECT
  5
39
102
{ACAD_REACTORS
330
2A
102
}
330
2A
100
AcDbZombieObject
 90
      499
 91
      501
 93
      444
310
42D19858D95C185D1D195C9B90F409028333333333333E3BF0000000000000FB010790141107004050150841D405064090741402480A0350
1001
ACAD
1000
AcDbSavedByObjectVersion
1070
     0
  0
ACAD_PROXY_OBJECT
  5
2B
102
{ACAD_REACTORS
330
2A
102
}
330
2A
100
AcDbZombieObject
 90
      499
 91
      501
 93
      388
310
41119B185D240901404333333333333E3BF0000000000000F9010740A41107004050150841D405064090741402480A1B50
1001
ACAD
1000
AcDbSavedByObjectVersion
1070
     0
  0
ACAD_PROXY_OBJECT
  5
2C
102
{ACAD_REACTORS
330
2A
102
}
330
2A
100
AcDbZombieObject
 90
      499
 91
      501
 93
      476
310
43519B185D15DA5D1A115919D95CD0140901404333333333333E3BF0000000000000F9010740901411070040501600405405064090741402480A1B50
1001
ACAD
1000
AcDbSavedByObjectVersion
1070
     0
  0
ACAD_PROXY_OBJECT
  5
2D
102
{ACAD_REACTORS
330
2A
102
}
330
2A
100
AcDbZombieObject
 90
      499
 91
      501
 93
      412
310
41D1DBDD5C985D5910240902404333333333333E3BF0000000000000F9010740A411070040501641D405064090741402480A1B50
1001
ACAD
1000
AcDbSavedByObjectVersion
1070
     0
  0
ACAD_PROXY_OBJECT
  5
2E
102
{ACAD_REACTORS
330
2A
102
}
330
2A
100
AcDbZombieObject
 90
      499
 91
      501
 93
      500
310
4411DBDD5C985D5915DA5D1A115919D95CD0340902404333333333333E3BF0000000000000F9010740901411070040501600405405064090741402480A1B50
1001
ACAD
1000
AcDbSavedByObjectVersion
1070
     0
  0
ACAD_PROXY_OBJECT
  5
38
102
{ACAD_REACTORS
330
2A
102
}
330
2A
100
AcDbZombieObject
 90
      499
 91
      501
 93
      444
310
42D31A5B995C185D1D195C9B90E409028333333333333E3BF0000000000000FB010790141107004050750841D405064090741402483A0350
1001
ACAD
1000
AcDbSavedByObjectVersion
1070
     0
  0
ACAD_PROXY_OBJECT
  5
33
102
{ACAD_REACTORS
330
2A
102
}
330
2A
100
AcDbZombieObject
 90
      499
 91
      501
 93
      420
310
425499585B1A5CDD1A58D08409028333333333333E3BF0000000000000FB01079019070040501508421405064090741402480A1B40
1001
ACAD
1000
AcDbSavedByObjectVersion
1070
     0
  0
ACAD_PROXY_OBJECT
  5
37
102
{ACAD_REACTORS
330
2A
102
}
330
2A
100
AcDbZombieObject
 90
      499
 91
      501
 93
      412
310
41D51A1A58DAD95B90D409028333333333333E3BF0000000000000FB010790141107004050150C41D405064090741402480A0350
1001
ACAD
1000
AcDbSavedByObjectVersion
1070
     0
  0
DICTIONARYVAR
  5
45
102
{ACAD_REACTORS
330
42
102
}
330
42
100
DictionaryVariables
280
     0
  1
2
  0
DICTIONARYVAR
  5
46
102
{ACAD_REACTORS
330
42
102
}
330
42
100
DictionaryVariables
280
     0
  1
1
  0
DICTIONARY
  5
49
330
3D
100
AcDbDictionary
  3
ACAD_XREC_ROUNDTRIP
360
4A
1001
ACAD
1000
TREAT_AS_HARD
1070
     1
  0
DICTIONARY
  5
47
330
3C
100
AcDbDictionary
  3
ACAD_XREC_ROUNDTRIP
360
48
1001
ACAD
1000
TREAT_AS_HARD
1070
     1
  0
DICTIONARY
  5
4B
330
3E
100
AcDbDictionary
  3
ACAD_XREC_ROUNDTRIP
360
4C
1001
ACAD
1000
TREAT_AS_HARD
1070
     1
  0
XRECORD
  5
4A
102
{ACAD_REACTORS
330
49
102
}
330
49
100
AcDbXrecord
102
MATERIAL
148
0.0
149
0.0
149
0.0
 93
        0
 94
      127
282
     0
 72
     1
 77
     1
171
     1
175
     1
179
     1
273
     0
  0
XRECORD
  5
48
102
{ACAD_REACTORS
330
47
102
}
330
47
100
AcDbXrecord
102
MATERIAL
148
0.0
149
0.0
149
0.0
 93
        0
 94
      127
282
     0
 72
     1
 77
     1
171
     1
175
     1
179
     1
273
     0
  0
XRECORD
  5
4C
102
{ACAD_REACTORS
330
4B
102
}
330
4B
100
AcDbXrecord
102
MATERIAL
148
0.0
149
0.0
149
0.0
 93
        0
 94
      127
282
     0
 72
     1
 77
     1
171
     1
175
     1
179
     1
273
     0
  0
ENDSEC
  0
EOF
